<?xml version="1.0" encoding="utf-8"?>
<!-- Generator: Adobe Illustrator 24.3.0, SVG Export Plug-In . SVG Version: 6.00 Build 0)  -->
<svg version="1.1" id="Layer_1" xmlns="http://www.w3.org/2000/svg" xmlns:xlink="http://www.w3.org/1999/xlink" x="0px" y="0px"
	 viewBox="0 0 841.89 841.89" style="enable-background:new 0 0 841.89 841.89;" xml:space="preserve">
<style type="text/css">
	.st0{fill:none;stroke:#FFFFFF;stroke-width:7;stroke-miterlimit:10;}
	.st1{fill:#FFFFFF;stroke:#020203;stroke-miterlimit:10;}
	.st2{fill:none;stroke:#FFFFFF;stroke-width:4;stroke-linecap:round;stroke-miterlimit:10;}
	.st3{fill:#E52629;}
	.st4{fill:none;stroke:#000000;stroke-width:7;stroke-miterlimit:10;}
	.st5{fill:none;stroke:#000000;stroke-width:5;stroke-linecap:round;stroke-linejoin:round;stroke-miterlimit:10;}
	.st6{fill:#FFFFFF;stroke:#000000;stroke-width:7;stroke-miterlimit:10;}
	.st7{fill:#FFFFFF;}
	.st8{fill:none;stroke:#FFFFFF;stroke-width:4;stroke-linecap:round;stroke-linejoin:round;stroke-miterlimit:10;}
	.st9{fill:none;}
	.st10{font-family:'AndaleMonoMTStd-Bold';}
	.st11{font-size:24.9414px;}
</style>
<path class="st4" d="M738.85,630.31h15.58l9.66-19.9c0.46-0.9,0.2-1.99-0.6-2.61l-10.12-7.91c2.51-6.11,4.88-12.29,7.07-18.52
	l12.83,0.86c1.02,0.06,1.93-0.58,2.19-1.53l9.16-32.14c0.28-0.98-0.16-1.99-1.06-2.47l-11.33-6.01c1.41-6.45,2.67-12.94,3.74-19.46
	l12.77-1.39c1-0.1,1.79-0.9,1.89-1.89l3.41-33.22c0.1-1.02-0.52-1.93-1.47-2.25l-12.15-3.94c0.3-6.61,0.4-13.22,0.34-19.88
	l12.25-3.54c0.96-0.28,1.59-1.2,1.53-2.21l-2.39-33.28c-0.08-1.02-0.84-1.83-1.83-1.97l-12.63-1.75c-0.88-6.55-1.91-13.1-3.17-19.64
	l11.47-5.62c0.9-0.46,1.37-1.47,1.12-2.43l-8.13-32.4c-0.24-0.98-1.14-1.65-2.15-1.61l-12.83,0.44c-1.99-6.25-4.14-12.51-6.49-18.72
	l10.38-7.59c0.8-0.58,1.1-1.67,0.68-2.59l-13.62-30.47c-0.42-0.92-1.41-1.41-2.39-1.21l-12.59,2.69c-3.07-5.9-6.27-11.69-9.62-17.35
	l8.9-9.26c0.7-0.72,0.78-1.83,0.22-2.67l-18.72-27.64c-0.56-0.84-1.65-1.16-2.57-0.78l-11.85,4.78
	c-4.04-5.28-8.24-10.42-12.55-15.43l7.09-10.59c0.56-0.84,0.48-1.95-0.24-2.67l-23.2-23.96c-0.72-0.72-1.81-0.86-2.67-0.32
	L663.96,197c-4.9-4.48-9.92-8.8-15.04-12.98l5.18-11.69c0.4-0.94,0.12-2.01-0.7-2.61l-27.06-19.58c-0.82-0.58-1.93-0.54-2.67,0.14
	l-9.54,8.6c-5.58-3.56-11.27-6.97-17.03-10.2l3.07-12.47c0.24-0.98-0.24-1.99-1.15-2.43L569,119.21c-0.92-0.44-2.01-0.18-2.63,0.62
	l-7.91,10.14c-6.11-2.53-12.29-4.88-18.52-7.07l0.88-12.83c0.06-1.02-0.6-1.93-1.55-2.19l-32.1-9.14c-0.98-0.28-1.99,0.16-2.47,1.04
	l-6.01,11.33c-6.45-1.43-12.94-2.67-19.48-3.74l-1.37-12.77c-0.1-1-0.9-1.79-1.91-1.89l-33.22-3.43c-1-0.12-1.93,0.5-2.25,1.45
	l-3.94,12.17c-6.61-0.28-13.22-0.4-19.86-0.32l-3.56-12.25c-0.28-0.98-1.2-1.61-2.21-1.53l-33.3,2.37
	c-1.02,0.08-1.83,0.84-1.97,1.83l-1.77,12.65c-6.53,0.88-13.06,1.91-19.6,3.15l-5.64-11.43c-0.44-0.9-1.45-1.37-2.43-1.14
	l-32.4,8.13c-0.96,0.24-1.63,1.14-1.59,2.15l0.44,12.81c-6.25,1.99-12.51,4.16-18.72,6.51l-7.59-10.38c-0.6-0.82-1.67-1.12-2.61-0.7
	l-30.47,13.64c-0.92,0.42-1.43,1.41-1.21,2.39l2.69,12.57c-5.89,3.07-11.67,6.29-17.33,9.64l-9.28-8.9
	c-0.72-0.7-1.83-0.78-2.67-0.22l-27.64,18.72c-0.84,0.56-1.15,1.63-0.78,2.57l4.78,11.85c-5.26,4.04-10.4,8.22-15.41,12.53
	l-10.59-7.09c-0.84-0.56-1.95-0.46-2.67,0.24l-23.98,23.2c-0.72,0.72-0.86,1.81-0.32,2.67l6.77,10.83c-4.48,4.9-8.8,9.9-12.98,15.02
	l-11.69-5.16c-0.94-0.4-2.01-0.12-2.61,0.7l-19.58,27.04c-0.58,0.82-0.54,1.93,0.14,2.69l8.6,9.52c-3.54,5.6-6.95,11.27-10.2,17.03
	l-12.45-3.07c-0.98-0.26-1.99,0.24-2.43,1.14l-14.58,30.03c-0.44,0.9-0.18,1.99,0.6,2.61l10.14,7.91
	c-2.53,6.11-4.88,12.31-7.07,18.54l-12.83-0.86c-1.02-0.08-1.93,0.58-2.19,1.53l-9.14,32.12c-0.28,0.98,0.16,2.01,1.06,2.47
	l11.31,6.01c-1.43,6.45-2.67,12.94-3.74,19.48l-12.75,1.37c-1,0.1-1.79,0.92-1.89,1.89l-3.45,33.26c-0.12,1,0.5,1.93,1.45,2.25
	l12.17,3.92c-0.28,6.61-0.4,13.22-0.32,19.86l-12.27,3.54c-0.98,0.28-1.61,1.21-1.55,2.21l2.39,33.3c0.08,1.02,0.84,1.83,1.83,1.97
	l12.67,1.77c0.88,6.55,1.91,13.08,3.15,19.62l-11.45,5.64c-0.9,0.44-1.37,1.45-1.13,2.43l8.13,32.36c0.24,0.98,1.14,1.65,2.13,1.61
	l12.85-0.44c1.99,6.25,4.16,12.51,6.51,18.72l-10.38,7.59c-0.82,0.6-1.1,1.67-0.7,2.59l13.64,30.47c0.04,0.1,0.12,0.16,0.16,0.24
	h6.87h5.69"/>
<path class="st4" d="M695.9,402.83c4.74,27.91,5.23,57.68,0.83,88.81"/>
<path class="st4" d="M683.4,356.04c5.53,14.9,9.73,30.53,12.5,46.79"/>
<path class="st4" d="M188.14,306.18c8.06-11.65,16.97-22.58,26.6-32.72c53.49-56.32,129.34-88.61,206.11-88.61
	c85.48,0,160.64,32.97,211.33,87.8c3.82,4.14,7.51,8.4,11.05,12.78"/>
<path d="M169.64,630.31c-5.76-12.68-4.38-32.32-10.02-50.17c-1.11-9.53-8.75-15.88-12.91-24.24
	c-11.51-23.12-17.42-48.57-17.79-74.42c-0.24-16.57-2.78-33.44-3.4-50.12c-0.56-15.1,0.63-30.5,4.1-45.3
	c3.47-14.8,9.23-28.99,17.8-41.67c0.82-1.21,1.67-2.41,2.54-3.58s1.77-2.34,2.69-3.48c0.92-1.14,1.87-2.26,2.84-3.37
	c0.97-1.11,1.97-2.19,2.99-3.26c1.16-1.22,2.24-2.46,3.25-3.74c1.01-1.27,1.94-2.57,2.79-3.9s1.63-2.68,2.33-4.06
	c0.7-1.38,1.33-2.79,1.88-4.23c0.55-1.44,1.03-2.9,1.43-4.4s0.73-3.02,0.99-4.57c0.26-1.55,0.44-3.13,0.55-4.74
	c0.11-1.61,0.15-3.25,0.11-4.91c-0.01-0.25-0.01-0.51-0.01-0.76c0-0.25-0.01-0.51-0.01-0.76c0-0.25,0-0.51,0-0.76
	c0-0.25,0-0.51,0-0.76c0-0.25,0-0.51,0-0.76s0-0.51,0-0.76c0-0.25,0-0.51,0-0.76c0-0.25,0-0.51,0-0.76
	c0.08-0.01,0.15-0.02,0.23-0.03c0.08-0.01,0.15-0.02,0.23-0.03c0.08-0.01,0.15-0.02,0.23-0.03c0.08-0.01,0.15-0.02,0.23-0.03
	c0.08-0.01,0.15-0.02,0.23-0.03c0.08-0.01,0.15-0.02,0.23-0.03c0.08-0.01,0.15-0.02,0.23-0.03c0.08-0.01,0.15-0.02,0.23-0.03
	c0.15,0.63,0.31,1.25,0.47,1.88c0.16,0.63,0.33,1.25,0.49,1.88c0.17,0.62,0.34,1.25,0.5,1.87c0.17,0.62,0.33,1.25,0.49,1.88
	c0.16,0.63,0.32,1.25,0.47,1.88c0.15,0.63,0.29,1.26,0.43,1.88c0.13,0.63,0.26,1.26,0.37,1.89c0.11,0.63,0.21,1.27,0.3,1.9
	c0.2,1.51,0.32,3,0.36,4.48s0.01,2.95-0.09,4.41s-0.26,2.91-0.47,4.35c-0.21,1.44-0.48,2.87-0.79,4.3
	c-0.31,1.43-0.66,2.84-1.04,4.26c-0.38,1.41-0.8,2.82-1.23,4.23c-0.44,1.41-0.89,2.81-1.36,4.21c-0.47,1.4-0.94,2.8-1.42,4.2
	c-0.27,0.78-0.54,1.57-0.81,2.36c-0.27,0.79-0.54,1.58-0.8,2.37c-0.26,0.79-0.52,1.59-0.77,2.38s-0.5,1.59-0.73,2.39
	c-0.23,0.8-0.46,1.6-0.67,2.4c-0.21,0.8-0.41,1.61-0.59,2.41c-0.18,0.81-0.35,1.62-0.49,2.43c-0.15,0.81-0.27,1.62-0.38,2.44
	c-0.14,1.09-0.22,2.17-0.24,3.23c-0.02,1.06,0.02,2.11,0.12,3.14c0.1,1.03,0.27,2.04,0.5,3.02s0.53,1.95,0.9,2.88
	c0.37,0.93,0.81,1.84,1.32,2.71c0.51,0.87,1.1,1.72,1.76,2.52c0.66,0.81,1.4,1.58,2.22,2.3s1.71,1.42,2.69,2.06
	c0.93,0.61,1.87,1.14,2.82,1.59c0.94,0.45,1.89,0.81,2.84,1.1c0.95,0.29,1.91,0.49,2.86,0.63c0.96,0.13,1.92,0.19,2.88,0.18
	c0.96-0.01,1.92-0.1,2.88-0.25s1.92-0.37,2.88-0.65c0.96-0.28,1.92-0.63,2.87-1.04s1.91-0.87,2.86-1.4
	c0.76-0.42,1.48-0.87,2.16-1.35c0.68-0.48,1.32-0.99,1.93-1.53c0.6-0.54,1.17-1.11,1.7-1.71s1.02-1.22,1.47-1.87
	s0.87-1.33,1.24-2.03c0.38-0.7,0.72-1.43,1.02-2.18c0.3-0.75,0.57-1.52,0.79-2.32c0.23-0.8,0.42-1.61,0.57-2.45
	c0.11-0.59,0.2-1.18,0.29-1.78c0.09-0.6,0.16-1.2,0.23-1.8c0.07-0.6,0.13-1.21,0.19-1.83s0.11-1.24,0.16-1.86s0.1-1.26,0.15-1.91
	c0.05-0.64,0.1-1.3,0.15-1.96c0.05-0.66,0.1-1.33,0.16-2.02c0.06-0.68,0.12-1.38,0.18-2.08c0.58,1.27,1.13,2.53,1.63,3.79
	s0.97,2.52,1.4,3.77c0.42,1.25,0.81,2.51,1.14,3.76c0.34,1.25,0.63,2.51,0.87,3.76s0.43,2.51,0.57,3.77s0.23,2.52,0.26,3.79
	c0.03,1.27,0.01,2.54-0.07,3.82c-0.08,1.28-0.22,2.56-0.42,3.85c-0.14,0.88-0.29,1.75-0.45,2.62c-0.16,0.87-0.34,1.74-0.53,2.61
	s-0.39,1.73-0.59,2.6c-0.2,0.86-0.42,1.73-0.63,2.59c-0.21,0.86-0.43,1.73-0.65,2.59s-0.44,1.73-0.65,2.59
	c-0.22,0.86-0.43,1.73-0.64,2.59c-0.21,0.86-0.41,1.73-0.6,2.6c-0.15,0.66-0.28,1.32-0.4,1.99c-0.12,0.66-0.22,1.33-0.29,1.98
	c-0.07,0.66-0.12,1.31-0.13,1.96s0.01,1.29,0.08,1.93c0.07,0.63,0.18,1.26,0.34,1.87c0.16,0.61,0.37,1.21,0.64,1.8
	s0.6,1.16,0.99,1.71c0.39,0.55,0.85,1.09,1.39,1.61c0.97,0.94,1.97,1.8,3,2.59c1.02,0.79,2.07,1.5,3.15,2.13
	c1.07,0.63,2.17,1.19,3.29,1.67c1.12,0.48,2.26,0.88,3.43,1.2c1.16,0.32,2.35,0.57,3.56,0.73c1.21,0.17,2.43,0.25,3.68,0.26
	s2.51-0.06,3.8-0.21c1.28-0.15,2.59-0.38,3.91-0.69c0.64-0.15,1.23-0.34,1.77-0.56s1.05-0.49,1.5-0.79s0.87-0.63,1.24-1
	s0.69-0.77,0.97-1.2c0.28-0.43,0.51-0.9,0.7-1.39c0.19-0.49,0.33-1.02,0.43-1.57c0.1-0.55,0.15-1.13,0.16-1.74
	c0.01-0.61-0.03-1.24-0.11-1.9c-0.04-0.3-0.08-0.61-0.13-0.91c-0.05-0.3-0.11-0.6-0.17-0.91c-0.06-0.3-0.13-0.6-0.21-0.9
	s-0.15-0.6-0.24-0.9c-0.08-0.3-0.17-0.6-0.26-0.89c-0.09-0.3-0.19-0.59-0.29-0.89s-0.2-0.59-0.3-0.88c-0.1-0.29-0.21-0.58-0.32-0.87
	c-0.5-1.34-1.01-2.68-1.52-4.02s-1.02-2.68-1.53-4.01c-0.51-1.34-1.03-2.67-1.54-4.01s-1.03-2.67-1.54-4.01s-1.03-2.67-1.54-4.01
	c-0.51-1.34-1.02-2.67-1.53-4.01c-0.51-1.34-1.02-2.68-1.52-4.02c-0.5-1.34-1.01-2.68-1.5-4.02c-0.69-1.87-1.28-3.72-1.76-5.56
	c-0.48-1.84-0.85-3.66-1.11-5.47c-0.26-1.81-0.41-3.61-0.44-5.39c-0.03-1.78,0.05-3.55,0.25-5.31c0.2-1.76,0.52-3.5,0.96-5.23
	c0.44-1.73,1-3.45,1.69-5.16s1.5-3.41,2.43-5.09c0.94-1.69,2-3.36,3.2-5.03c0.97-1.35,1.91-2.71,2.81-4.09
	c0.9-1.38,1.77-2.78,2.59-4.19c0.82-1.42,1.6-2.85,2.33-4.31c0.73-1.46,1.41-2.94,2.03-4.44c0.62-1.5,1.18-3.03,1.68-4.58
	c0.5-1.55,0.93-3.13,1.3-4.73c0.36-1.6,0.66-3.23,0.87-4.89c0.22-1.66,0.35-3.34,0.41-5.06c0-0.02,0.01-0.04,0.02-0.06
	s0.03-0.04,0.06-0.06c0.03-0.02,0.06-0.04,0.09-0.06c0.04-0.02,0.08-0.04,0.12-0.07c0.05-0.02,0.1-0.05,0.15-0.08
	s0.11-0.06,0.17-0.09c0.06-0.03,0.12-0.06,0.19-0.1c0.07-0.04,0.13-0.07,0.2-0.12c0.09,0.17,0.19,0.33,0.28,0.5
	c0.09,0.17,0.19,0.33,0.28,0.49c0.1,0.16,0.19,0.33,0.29,0.49c0.1,0.16,0.19,0.33,0.28,0.49c0.09,0.16,0.19,0.33,0.28,0.49
	c0.09,0.16,0.18,0.33,0.27,0.49c0.09,0.17,0.18,0.33,0.26,0.5c0.09,0.17,0.17,0.34,0.25,0.5c0.73,1.53,1.4,3.07,2,4.62
	s1.14,3.11,1.61,4.68c0.47,1.57,0.88,3.14,1.22,4.73c0.34,1.58,0.62,3.18,0.83,4.78c0.21,1.6,0.36,3.21,0.44,4.83
	c0.08,1.62,0.1,3.25,0.05,4.88c-0.05,1.64-0.17,3.28-0.35,4.94c-0.18,1.65-0.43,3.32-0.75,4.99c-0.2,1.07-0.32,2.11-0.35,3.13
	c-0.03,1.02,0.01,2.01,0.14,2.97s0.34,1.89,0.62,2.78c0.29,0.89,0.65,1.75,1.09,2.56s0.96,1.59,1.55,2.32
	c0.59,0.73,1.26,1.42,1.99,2.05c0.74,0.64,1.54,1.22,2.42,1.76s1.82,1.01,2.84,1.44c0.6,0.25,1.2,0.48,1.8,0.68s1.2,0.38,1.8,0.52
	c0.6,0.14,1.2,0.26,1.8,0.33c0.6,0.08,1.2,0.12,1.79,0.11s1.19-0.05,1.78-0.14c0.59-0.09,1.17-0.23,1.75-0.42s1.15-0.43,1.72-0.74
	c0.57-0.3,1.13-0.66,1.68-1.08c0.54-0.41,1.02-0.85,1.45-1.3c0.43-0.46,0.81-0.94,1.15-1.44c0.33-0.5,0.62-1.02,0.86-1.55
	c0.24-0.53,0.44-1.08,0.59-1.65s0.27-1.14,0.35-1.72s0.12-1.17,0.12-1.77c0.01-0.6-0.02-1.2-0.08-1.8c-0.06-0.6-0.15-1.21-0.27-1.81
	c-0.14-0.7-0.29-1.39-0.44-2.09s-0.32-1.39-0.5-2.08c-0.17-0.69-0.36-1.38-0.55-2.07c-0.19-0.69-0.39-1.38-0.6-2.06
	s-0.42-1.37-0.65-2.05c-0.22-0.68-0.45-1.36-0.69-2.03s-0.48-1.34-0.73-2.01c-0.25-0.67-0.51-1.33-0.77-1.99
	c-0.47-1.18-0.96-2.36-1.46-3.54s-1-2.35-1.51-3.52c-0.51-1.17-1.03-2.34-1.54-3.5c-0.52-1.17-1.04-2.33-1.56-3.5
	c-0.52-1.17-1.04-2.33-1.56-3.5s-1.03-2.33-1.54-3.5s-1.01-2.34-1.51-3.52c-0.49-1.18-0.98-2.36-1.46-3.54
	c-1.24-3.1-2.27-6.16-3.07-9.19s-1.39-6.02-1.76-8.98c-0.37-2.96-0.52-5.87-0.46-8.76c0.06-2.88,0.34-5.73,0.83-8.54
	c0.49-2.81,1.2-5.58,2.13-8.31c0.92-2.73,2.06-5.43,3.41-8.09c1.35-2.66,2.92-5.28,4.69-7.86s3.77-5.13,5.97-7.64
	c0.1-0.11,0.2-0.23,0.31-0.34c0.1-0.11,0.21-0.22,0.32-0.33c0.11-0.11,0.22-0.22,0.34-0.33c0.12-0.11,0.23-0.22,0.35-0.33
	c0.12-0.11,0.24-0.22,0.37-0.34c0.13-0.12,0.26-0.23,0.39-0.35c0.13-0.12,0.27-0.25,0.41-0.37c0.14-0.13,0.28-0.26,0.42-0.4
	c0.02,0.11,0.03,0.22,0.05,0.31c0.01,0.09,0.03,0.17,0.04,0.25c0.01,0.07,0.02,0.14,0.03,0.19c0.01,0.06,0.02,0.11,0.03,0.15
	c0.01,0.04,0.01,0.08,0.02,0.11s0.01,0.06,0.01,0.08c0,0.02,0,0.04,0,0.06c0,0.02,0,0.04-0.01,0.05c-0.05,0.17-0.1,0.33-0.15,0.5
	c-0.05,0.17-0.1,0.33-0.15,0.5c-0.05,0.17-0.1,0.33-0.16,0.5s-0.1,0.33-0.16,0.5s-0.1,0.33-0.16,0.5c-0.05,0.17-0.1,0.33-0.15,0.5
	c-0.05,0.17-0.1,0.33-0.15,0.5c-0.05,0.17-0.1,0.33-0.15,0.5c-0.46,1.56-0.89,3.11-1.27,4.67c-0.38,1.56-0.73,3.11-1.02,4.67
	c-0.29,1.56-0.53,3.11-0.71,4.67c-0.18,1.56-0.29,3.11-0.33,4.67s-0.01,3.11,0.1,4.66c0.11,1.55,0.31,3.1,0.6,4.65
	c0.29,1.55,0.67,3.09,1.16,4.63s1.08,3.08,1.78,4.61c0.64,1.39,1.34,2.71,2.11,3.94c0.77,1.23,1.6,2.37,2.49,3.44
	c0.89,1.06,1.84,2.04,2.84,2.94s2.07,1.72,3.18,2.45c1.12,0.74,2.28,1.39,3.5,1.96c1.22,0.57,2.49,1.06,3.8,1.47
	c1.32,0.41,2.68,0.74,4.09,0.99c1.41,0.25,2.86,0.42,4.35,0.5c1.46,0.08,2.85,0.05,4.18-0.1s2.6-0.4,3.81-0.76
	c1.21-0.36,2.36-0.82,3.46-1.37c1.09-0.55,2.13-1.2,3.11-1.92c0.98-0.73,1.91-1.53,2.78-2.41c0.87-0.88,1.69-1.83,2.46-2.85
	s1.48-2.1,2.15-3.23c0.67-1.13,1.28-2.32,1.85-3.55c0.32-0.68,0.6-1.38,0.86-2.09c0.26-0.71,0.5-1.43,0.72-2.16
	c0.22-0.73,0.42-1.47,0.6-2.21c0.19-0.74,0.36-1.5,0.52-2.25s0.32-1.51,0.47-2.27c0.15-0.76,0.3-1.52,0.44-2.28
	c0.15-0.76,0.3-1.52,0.45-2.28c0.16-0.76,0.32-1.51,0.49-2.26c0.04-0.17,0.07-0.33,0.1-0.51c0.03-0.17,0.05-0.34,0.07-0.52
	s0.03-0.35,0.04-0.54c0.01-0.18,0.02-0.37,0.03-0.56c0.01-0.19,0.01-0.38,0.02-0.58s0.01-0.4,0.01-0.61
	c0.01-0.21,0.01-0.42,0.02-0.64c0.01-0.22,0.02-0.45,0.03-0.68c1.9,1.5,3.63,3.1,5.17,4.78c1.55,1.68,2.91,3.44,4.1,5.27
	c1.18,1.83,2.18,3.73,2.99,5.7c0.81,1.96,1.43,3.98,1.86,6.05c0.43,2.07,0.66,4.18,0.7,6.34c0.04,2.15-0.12,4.34-0.48,6.55
	c-0.36,2.21-0.93,4.45-1.7,6.7c-0.77,2.25-1.75,4.51-2.94,6.78c-0.62,1.18-1.27,2.35-1.95,3.5s-1.39,2.29-2.12,3.42
	c-0.73,1.13-1.48,2.24-2.26,3.35c-0.77,1.11-1.56,2.2-2.37,3.29s-1.63,2.17-2.46,3.24s-1.67,2.14-2.52,3.2
	c-0.85,1.06-1.7,2.11-2.55,3.16c-0.85,1.05-1.71,2.1-2.56,3.14c-1.49,1.83-2.87,3.68-4.14,5.56c-1.27,1.88-2.42,3.78-3.46,5.71
	s-1.96,3.89-2.76,5.88c-0.8,1.99-1.47,4.01-2.02,6.05c-0.55,2.05-0.97,4.13-1.26,6.24c-0.29,2.11-0.45,4.25-0.47,6.43
	c-0.02,2.18,0.09,4.38,0.35,6.63s0.65,4.52,1.19,6.84c0.44,1.87,1.04,3.6,1.78,5.18c0.74,1.58,1.62,3.02,2.63,4.3
	c1,1.28,2.13,2.41,3.35,3.37s2.55,1.77,3.95,2.39c1.4,0.63,2.89,1.09,4.43,1.37s3.14,0.38,4.78,0.29c1.64-0.09,3.32-0.37,5.01-0.85
	c1.69-0.48,3.4-1.15,5.11-2.03c1.04-0.53,2.03-1.11,2.99-1.72c0.96-0.61,1.87-1.27,2.75-1.95c0.88-0.69,1.73-1.41,2.54-2.16
	c0.81-0.75,1.59-1.54,2.35-2.35s1.48-1.65,2.18-2.52c0.7-0.86,1.37-1.75,2.03-2.66c0.65-0.91,1.28-1.84,1.9-2.79
	c0.61-0.95,1.21-1.91,1.79-2.89c0.11-0.18,0.22-0.37,0.33-0.55c0.11-0.18,0.22-0.37,0.34-0.56c0.11-0.19,0.23-0.38,0.35-0.58
	c0.12-0.2,0.24-0.4,0.37-0.61c0.13-0.21,0.26-0.43,0.39-0.65c0.14-0.22,0.28-0.46,0.42-0.7s0.3-0.5,0.46-0.76
	c0.16-0.26,0.33-0.54,0.5-0.83c0.4,1.48,0.72,2.93,0.97,4.35c0.25,1.42,0.42,2.82,0.52,4.19c0.1,1.37,0.13,2.72,0.09,4.05
	s-0.15,2.63-0.33,3.92c-0.18,1.29-0.42,2.55-0.73,3.8c-0.31,1.25-0.68,2.48-1.12,3.7c-0.43,1.22-0.93,2.42-1.48,3.6
	s-1.17,2.36-1.83,3.53c-0.47,0.82-0.95,1.63-1.45,2.44c-0.49,0.81-0.99,1.61-1.5,2.41c-0.51,0.8-1.03,1.59-1.55,2.38
	c-0.52,0.79-1.05,1.58-1.57,2.37c-0.53,0.79-1.06,1.58-1.58,2.36s-1.06,1.58-1.58,2.37c-0.52,0.79-1.04,1.58-1.56,2.38
	c-0.52,0.8-1.02,1.59-1.53,2.4c-4.75,7.62-4.29,18.04,0.58,25.48c4.41,6.73,11.96,11.1,19.91,12.36c3,0.47,6.19,0.51,8.94-0.76
	c2.37-1.1,4.23-3.09,5.59-5.32c3.37-5.53,3.81-12.34,3.47-18.81c-0.37-7.18-0.22-14.6-0.91-21.71c-0.17-1.7-0.26-3.39-0.26-5.06
	c-0.01-1.67,0.07-3.32,0.24-4.95s0.41-3.24,0.75-4.84c0.34-1.59,0.77-3.17,1.3-4.72c0.53-1.55,1.15-3.08,1.87-4.6
	c0.72-1.51,1.54-3,2.46-4.46c0.92-1.47,1.94-2.91,3.07-4.33c0.48-0.61,0.95-1.22,1.42-1.84c0.46-0.62,0.92-1.24,1.37-1.87
	c0.45-0.63,0.9-1.26,1.34-1.9c0.45-0.63,0.89-1.27,1.33-1.9c0.44-0.63,0.89-1.27,1.34-1.9c0.45-0.63,0.9-1.26,1.36-1.88
	c0.46-0.62,0.92-1.24,1.39-1.85c0.47-0.61,0.95-1.22,1.45-1.81c0.99-1.19,1.88-2.4,2.67-3.62c0.8-1.22,1.5-2.46,2.11-3.72
	c0.61-1.26,1.13-2.53,1.56-3.82c0.43-1.29,0.77-2.59,1.03-3.92c0.26-1.32,0.43-2.66,0.51-4.02c0.09-1.36,0.09-2.73,0.01-4.13
	c-0.08-1.39-0.24-2.8-0.48-4.23c-0.24-1.43-0.56-2.88-0.95-4.34c-0.26-0.96-0.51-1.93-0.76-2.9s-0.5-1.94-0.74-2.91
	c-0.24-0.97-0.49-1.94-0.72-2.91c-0.24-0.97-0.48-1.95-0.71-2.92s-0.47-1.95-0.71-2.93c-0.23-0.98-0.47-1.95-0.7-2.93
	s-0.47-1.96-0.71-2.94c-0.24-0.98-0.48-1.96-0.72-2.94c0.06,0.01,0.12,0.02,0.18,0.03c0.06,0.01,0.11,0.02,0.17,0.02
	s0.1,0.01,0.15,0.02c0.05,0.01,0.1,0.01,0.14,0.02s0.09,0.01,0.13,0.02s0.08,0.02,0.11,0.03c0.03,0.01,0.07,0.02,0.1,0.04
	c0.03,0.02,0.06,0.03,0.08,0.05c0.1,0.09,0.21,0.18,0.31,0.26s0.21,0.18,0.31,0.26s0.2,0.18,0.31,0.27c0.1,0.09,0.2,0.18,0.3,0.27
	c0.1,0.09,0.2,0.18,0.3,0.28c0.1,0.09,0.2,0.19,0.29,0.28c0.1,0.09,0.19,0.19,0.29,0.29c0.09,0.1,0.19,0.2,0.28,0.29
	c1.85,2.02,3.57,4.09,5.16,6.2c1.59,2.11,3.06,4.27,4.4,6.47c1.34,2.2,2.55,4.45,3.64,6.73c1.08,2.29,2.04,4.62,2.87,7
	s1.53,4.8,2.1,7.27c0.57,2.47,1.01,4.98,1.33,7.53c0.31,2.55,0.5,5.15,0.55,7.8s-0.02,5.33-0.23,8.06
	c-0.15,1.91-0.36,3.79-0.63,5.66c-0.27,1.87-0.6,3.72-0.99,5.55c-0.39,1.83-0.83,3.64-1.33,5.44s-1.05,3.58-1.65,5.34
	c-0.6,1.76-1.25,3.51-1.94,5.25c-0.69,1.73-1.43,3.45-2.21,5.16s-1.6,3.4-2.45,5.08c-0.85,1.68-1.75,3.35-2.67,5.01
	c-0.6,1.07-1.12,2.14-1.56,3.21c-0.44,1.07-0.81,2.14-1.11,3.21c-0.29,1.07-0.51,2.14-0.65,3.21c-0.14,1.07-0.21,2.14-0.21,3.21
	c0.01,1.07,0.09,2.14,0.24,3.21c0.15,1.07,0.38,2.14,0.69,3.21c0.3,1.07,0.68,2.14,1.13,3.2c0.45,1.07,0.97,2.13,1.57,3.2
	c0.93,1.66,2.06,3.24,3.37,4.74c1.31,1.49,2.78,2.9,4.39,4.2s3.35,2.49,5.19,3.56c1.84,1.07,3.76,2.02,5.75,2.84
	c1.99,0.81,4.03,1.49,6.09,2.01c2.06,0.52,4.14,0.9,6.19,1.1c2.06,0.2,4.09,0.24,6.07,0.09c1.98-0.15,3.89-0.48,5.71-1.01
	c0.71-0.21,1.39-0.44,2.05-0.7s1.3-0.55,1.91-0.86c0.61-0.32,1.2-0.66,1.77-1.03s1.11-0.77,1.63-1.2s1.01-0.89,1.48-1.37
	c0.47-0.49,0.92-1,1.34-1.55c0.42-0.55,0.82-1.12,1.2-1.73c0.38-0.61,0.73-1.25,1.05-1.92c0.91-1.86,1.68-3.71,2.32-5.55
	c0.64-1.84,1.14-3.66,1.51-5.48s0.61-3.62,0.71-5.41c0.11-1.79,0.08-3.58-0.07-5.35s-0.43-3.53-0.84-5.28s-0.94-3.49-1.6-5.23
	s-1.45-3.45-2.35-5.17s-1.94-3.42-3.09-5.11c-0.46-0.67-0.92-1.34-1.38-2.01c-0.46-0.67-0.93-1.34-1.39-2.01s-0.93-1.34-1.39-2.01
	c-0.46-0.67-0.92-1.34-1.37-2.02c-0.45-0.68-0.9-1.35-1.34-2.04c-0.44-0.68-0.87-1.37-1.3-2.06c-0.42-0.69-0.84-1.39-1.24-2.09
	s-0.79-1.41-1.17-2.12c-0.91-1.73-1.77-3.47-2.56-5.23c-0.79-1.75-1.5-3.52-2.14-5.29c-0.64-1.77-1.19-3.56-1.65-5.36
	c-0.46-1.8-0.83-3.61-1.1-5.43c-0.27-1.82-0.43-3.65-0.48-5.5c-0.05-1.85,0.02-3.7,0.21-5.57c0.19-1.87,0.51-3.75,0.96-5.65
	s1.04-3.81,1.78-5.73c0.5-1.3,1.05-2.55,1.66-3.76s1.26-2.37,1.97-3.49c0.71-1.12,1.46-2.2,2.26-3.24c0.8-1.04,1.65-2.04,2.53-3.01
	c0.89-0.97,1.82-1.9,2.78-2.79c0.97-0.9,1.97-1.76,3.02-2.59c1.04-0.83,2.12-1.63,3.23-2.41s2.25-1.52,3.42-2.24
	c-0.34,1.16-0.67,2.32-0.97,3.48s-0.58,2.32-0.84,3.48s-0.48,2.32-0.68,3.49c-0.2,1.16-0.37,2.33-0.51,3.49
	c-0.14,1.17-0.25,2.33-0.32,3.5c-0.07,1.17-0.12,2.34-0.12,3.52c0,1.18,0.03,2.35,0.1,3.53c0.07,1.18,0.19,2.37,0.34,3.56
	c0.13,1.02,0.29,2.03,0.47,3.03c0.18,1,0.39,1.99,0.63,2.96s0.51,1.93,0.83,2.87c0.31,0.94,0.66,1.86,1.05,2.77s0.83,1.78,1.31,2.64
	c0.49,0.86,1.02,1.69,1.61,2.5c0.59,0.81,1.23,1.59,1.94,2.33c0.7,0.75,1.47,1.47,2.3,2.15c0.83,0.69,1.68,1.28,2.53,1.78
	c0.85,0.5,1.71,0.92,2.58,1.25c0.87,0.33,1.74,0.59,2.62,0.77c0.88,0.18,1.77,0.28,2.67,0.32c0.9,0.04,1.8,0.01,2.71-0.08
	c0.91-0.09,1.82-0.24,2.74-0.44c0.92-0.2,1.84-0.46,2.77-0.76c0.93-0.3,1.86-0.65,2.8-1.03c0.82-0.34,1.57-0.72,2.26-1.14
	c0.69-0.42,1.31-0.88,1.87-1.37c0.56-0.49,1.06-1.03,1.5-1.59c0.44-0.56,0.83-1.16,1.17-1.78s0.63-1.28,0.87-1.95
	c0.24-0.68,0.44-1.38,0.6-2.1c0.16-0.72,0.28-1.47,0.36-2.23s0.13-1.55,0.15-2.34c0.02-0.62,0.02-1.23,0.03-1.85
	c0-0.62,0-1.24-0.01-1.85c-0.01-0.62-0.02-1.24-0.04-1.85c-0.02-0.62-0.05-1.24-0.07-1.85s-0.06-1.24-0.1-1.85
	c-0.04-0.62-0.08-1.24-0.13-1.85c-0.05-0.62-0.1-1.23-0.15-1.85c-0.05-0.62-0.11-1.23-0.17-1.85c-0.1-1.1-0.21-2.19-0.33-3.29
	c-0.12-1.1-0.24-2.19-0.37-3.29c-0.13-1.1-0.25-2.19-0.39-3.29c-0.13-1.1-0.26-2.19-0.39-3.29c-0.13-1.1-0.26-2.19-0.39-3.29
	c-0.13-1.1-0.25-2.19-0.37-3.29s-0.23-2.19-0.33-3.29c-0.1-1.1-0.2-2.19-0.29-3.29c-0.12-1.52-0.22-3.04-0.28-4.55
	c-0.06-1.51-0.09-3.02-0.09-4.53c0.01-1.5,0.05-3,0.15-4.5c0.09-1.49,0.23-2.98,0.42-4.46c0.19-1.48,0.43-2.95,0.73-4.42
	c0.3-1.46,0.66-2.92,1.08-4.36s0.91-2.88,1.47-4.3s1.19-2.83,1.9-4.23c0.38-0.75,0.77-1.47,1.19-2.19c0.42-0.71,0.85-1.41,1.31-2.1
	c0.46-0.69,0.94-1.36,1.44-2.01c0.5-0.66,1.03-1.3,1.58-1.93c0.55-0.63,1.13-1.25,1.73-1.86c0.6-0.61,1.24-1.2,1.9-1.79
	s1.35-1.16,2.08-1.72c0.72-0.56,1.48-1.12,2.27-1.66c-0.27,0.93-0.54,1.85-0.81,2.75c-0.27,0.9-0.53,1.79-0.8,2.67
	s-0.52,1.74-0.78,2.6c-0.26,0.86-0.51,1.7-0.76,2.54c-0.25,0.84-0.5,1.67-0.74,2.5s-0.48,1.65-0.72,2.47s-0.47,1.63-0.69,2.45
	s-0.45,1.63-0.67,2.44c-0.5,1.85-0.91,3.69-1.25,5.53c-0.34,1.84-0.59,3.66-0.76,5.48s-0.26,3.63-0.27,5.44
	c0,1.8,0.08,3.6,0.25,5.39s0.42,3.57,0.77,5.33s0.78,3.53,1.31,5.28s1.15,3.49,1.86,5.22c0.71,1.73,1.52,3.45,2.43,5.15
	c1.5,2.84,2.8,5.67,3.91,8.51c1.11,2.84,2.02,5.67,2.75,8.51c0.72,2.84,1.26,5.68,1.61,8.52c0.35,2.84,0.52,5.68,0.52,8.53
	c-0.01,2.84-0.19,5.69-0.54,8.54c-0.35,2.85-0.88,5.7-1.57,8.55c-0.69,2.85-1.54,5.71-2.56,8.56s-2.18,5.72-3.51,8.58
	c-0.27,0.57-0.53,1.15-0.78,1.73c-0.25,0.58-0.5,1.17-0.74,1.76c-0.24,0.59-0.47,1.19-0.7,1.78s-0.44,1.2-0.65,1.8
	s-0.41,1.21-0.6,1.82s-0.37,1.22-0.54,1.83s-0.33,1.23-0.48,1.84c-0.15,0.62-0.28,1.23-0.41,1.85c-0.35,1.75-0.56,3.44-0.62,5.06
	s0.02,3.17,0.25,4.65c0.22,1.48,0.59,2.88,1.08,4.21c0.5,1.33,1.13,2.57,1.89,3.74c0.76,1.16,1.66,2.25,2.68,3.24
	s2.17,1.9,3.43,2.71c1.27,0.81,2.66,1.53,4.16,2.14s3.13,1.14,4.86,1.55c7.84,1.87,13.91-3.07,17.35-10.13
	c2.67-5.48,3.39-11.71,3.48-17.8c0.11-7.28-0.46-14.53,0.27-21.8c0.1-0.98,0.22-1.96,0.37-2.93c0.15-0.97,0.32-1.94,0.52-2.91
	c0.2-0.97,0.43-1.93,0.68-2.9c0.26-0.97,0.54-1.93,0.85-2.9s0.66-1.94,1.03-2.92c0.38-0.98,0.78-1.96,1.22-2.94s0.91-1.98,1.42-2.98
	c0.51-1,1.05-2.01,1.63-3.03c1.25,2.55,2.41,5.08,3.46,7.61s2,5.04,2.84,7.56c0.83,2.51,1.55,5.02,2.15,7.53
	c0.6,2.51,1.07,5.02,1.4,7.53s0.54,5.03,0.6,7.55c0.06,2.52-0.03,5.05-0.27,7.6c-0.24,2.54-0.64,5.1-1.2,7.67
	c-0.56,2.57-1.28,5.16-2.18,7.76c-0.41,1.2-0.74,2.37-0.96,3.5c-0.23,1.13-0.36,2.23-0.4,3.28s0.02,2.08,0.17,3.07
	c0.15,0.99,0.4,1.94,0.73,2.86c0.34,0.92,0.77,1.8,1.3,2.65s1.15,1.66,1.86,2.44c0.72,0.78,1.52,1.52,2.43,2.23
	c0.9,0.71,1.9,1.38,2.99,2.02c0.73,0.43,1.46,0.82,2.2,1.18c0.74,0.36,1.49,0.68,2.25,0.97c0.76,0.29,1.52,0.55,2.29,0.77
	c0.77,0.22,1.55,0.41,2.33,0.56c0.78,0.15,1.57,0.27,2.37,0.36c0.8,0.09,1.6,0.14,2.41,0.15c0.81,0.02,1.62,0,2.45-0.05
	c0.82-0.05,1.65-0.14,2.48-0.26c1.03-0.15,2.01-0.37,2.94-0.66c0.93-0.29,1.82-0.64,2.65-1.06c0.83-0.42,1.61-0.9,2.32-1.44
	c0.72-0.54,1.37-1.14,1.96-1.8c0.59-0.66,1.11-1.37,1.55-2.13c0.45-0.76,0.82-1.57,1.11-2.43c0.29-0.86,0.51-1.77,0.63-2.71
	c0.13-0.95,0.17-1.94,0.12-2.97c-0.03-0.64-0.08-1.28-0.15-1.93c-0.07-0.64-0.15-1.29-0.25-1.94c-0.1-0.65-0.21-1.29-0.34-1.94
	c-0.13-0.64-0.27-1.29-0.42-1.93c-0.15-0.64-0.32-1.28-0.5-1.91c-0.18-0.63-0.37-1.26-0.57-1.89c-0.2-0.62-0.41-1.24-0.64-1.86
	c-0.22-0.61-0.46-1.22-0.7-1.82c-0.57-1.42-1.16-2.83-1.75-4.23c-0.6-1.41-1.2-2.81-1.82-4.21s-1.24-2.79-1.86-4.19
	s-1.25-2.79-1.88-4.18c-0.63-1.39-1.26-2.79-1.89-4.18s-1.25-2.79-1.87-4.19c-0.62-1.4-1.23-2.8-1.83-4.2
	c-0.6-1.4-1.19-2.81-1.77-4.23c-0.5-1.22-0.97-2.46-1.42-3.7c-0.45-1.24-0.87-2.49-1.26-3.74c-0.39-1.25-0.75-2.52-1.08-3.78
	c-0.33-1.27-0.63-2.54-0.89-3.83c-0.26-1.28-0.49-2.57-0.68-3.87c-0.19-1.3-0.34-2.6-0.46-3.91c-0.11-1.31-0.19-2.63-0.22-3.95
	s-0.02-2.66,0.04-4c0.07-1.68,0.22-3.32,0.46-4.92c0.24-1.6,0.56-3.15,0.96-4.67c0.41-1.52,0.9-2.99,1.47-4.43
	c0.58-1.44,1.24-2.83,1.99-4.2c0.75-1.36,1.59-2.69,2.52-3.98c0.93-1.29,1.95-2.55,3.06-3.77s2.31-2.41,3.61-3.57
	c1.3-1.16,2.68-2.29,4.17-3.38c-0.18,0.86-0.34,1.71-0.5,2.55s-0.3,1.67-0.43,2.49c-0.13,0.82-0.26,1.64-0.37,2.46
	c-0.11,0.82-0.22,1.63-0.31,2.45s-0.17,1.63-0.25,2.46c-0.07,0.82-0.13,1.65-0.18,2.49c-0.05,0.84-0.09,1.68-0.12,2.54
	c-0.03,0.86-0.05,1.73-0.06,2.62c-0.01,0.47-0.01,0.93-0.01,1.41c0,0.47,0,0.94,0.02,1.41c0.01,0.47,0.03,0.94,0.07,1.41
	s0.08,0.94,0.13,1.4c0.06,0.46,0.13,0.92,0.22,1.37c0.09,0.45,0.2,0.9,0.34,1.34s0.29,0.87,0.47,1.29c0.18,0.42,0.39,0.83,0.63,1.24
	c0.4,0.68,0.82,1.29,1.27,1.85c0.44,0.56,0.91,1.05,1.39,1.49s0.99,0.82,1.52,1.15s1.08,0.6,1.64,0.83
	c0.57,0.22,1.16,0.39,1.76,0.52c0.61,0.12,1.24,0.2,1.88,0.22c0.65,0.03,1.31,0.01,2-0.06c0.69-0.06,1.39-0.17,2.11-0.32
	c0.39-0.08,0.78-0.16,1.17-0.24c0.39-0.08,0.78-0.17,1.17-0.26c0.39-0.09,0.78-0.18,1.16-0.29c0.39-0.1,0.77-0.21,1.15-0.33
	c0.38-0.12,0.76-0.24,1.13-0.38s0.74-0.28,1.1-0.44c0.36-0.16,0.71-0.33,1.06-0.52c0.35-0.19,0.69-0.39,1.02-0.61
	c0.25-0.16,0.48-0.33,0.72-0.51s0.46-0.36,0.68-0.55c0.22-0.19,0.44-0.39,0.65-0.59c0.21-0.2,0.42-0.41,0.62-0.62
	c0.2-0.21,0.4-0.43,0.6-0.65c0.2-0.22,0.39-0.44,0.58-0.67c0.19-0.23,0.38-0.45,0.56-0.68c0.18-0.23,0.37-0.46,0.55-0.69
	c1.4-1.8,2.58-3.73,3.55-5.77s1.75-4.18,2.36-6.39c0.61-2.22,1.06-4.51,1.39-6.85s0.52-4.74,0.63-7.15s0.12-4.85,0.09-7.28
	c-0.04-2.43-0.13-4.86-0.24-7.25c-0.11-2.4-0.24-4.76-0.35-7.06c-0.11-2.3-0.21-4.55-0.25-6.71c-0.02-0.96-0.05-1.92-0.1-2.88
	c-0.05-0.96-0.11-1.92-0.18-2.87c-0.07-0.95-0.15-1.9-0.24-2.84c-0.09-0.94-0.18-1.88-0.28-2.81c-0.1-0.93-0.2-1.85-0.3-2.76
	c-0.1-0.91-0.21-1.81-0.31-2.7c-0.1-0.89-0.2-1.76-0.29-2.62s-0.18-1.71-0.26-2.54c0.84,1.46,1.68,2.93,2.53,4.4
	c0.85,1.48,1.71,2.96,2.57,4.45c0.86,1.49,1.72,2.99,2.59,4.5c0.87,1.51,1.74,3.02,2.61,4.53c0.87,1.52,1.75,3.04,2.62,4.56
	c0.88,1.53,1.75,3.06,2.63,4.59s1.76,3.07,2.63,4.61c0.88,1.54,1.75,3.08,2.63,4.62c0.22,0.39,0.44,0.77,0.65,1.16
	c0.21,0.39,0.42,0.78,0.63,1.18c0.21,0.39,0.41,0.79,0.61,1.19c0.2,0.4,0.4,0.8,0.59,1.2c0.2,0.4,0.39,0.8,0.58,1.21
	c0.19,0.4,0.38,0.81,0.56,1.21s0.36,0.81,0.54,1.22c0.18,0.41,0.35,0.82,0.53,1.23c0.79,1.88,1.52,3.77,2.17,5.66
	c0.65,1.89,1.22,3.78,1.7,5.67s0.87,3.78,1.15,5.68c0.28,1.89,0.46,3.78,0.51,5.67c0.06,1.89-0.01,3.77-0.21,5.65
	c-0.2,1.88-0.53,3.75-1.01,5.61c-0.48,1.87-1.11,3.72-1.89,5.57c-0.79,1.85-1.74,3.69-2.86,5.52c-0.39,0.64-0.81,1.27-1.24,1.88
	s-0.89,1.21-1.35,1.79c-0.47,0.58-0.95,1.16-1.44,1.72s-1,1.12-1.51,1.67c-0.51,0.55-1.03,1.09-1.55,1.63s-1.05,1.07-1.58,1.6
	c-0.53,0.53-1.06,1.06-1.58,1.6s-1.05,1.07-1.57,1.61c-0.58,0.6-1.12,1.21-1.64,1.81c-0.52,0.6-1,1.2-1.47,1.81
	c-0.46,0.61-0.9,1.21-1.32,1.83c-0.42,0.62-0.81,1.24-1.19,1.87c-1.66,2.76-3.28,5.55-4.74,8.43c-1.46,2.88-2.75,5.83-3.74,8.9
	c-1.04,3.22-1.68,6.58-2.22,9.97c-0.54,3.39-0.98,6.79-1.63,10.1c-1.27,6.56-1.45,17.48,1.14,26.53
	c2.59,9.05,7.95,16.22,17.75,15.29c1.2-0.11,2.38-0.34,3.52-0.67c1.14-0.33,2.25-0.77,3.31-1.3s2.07-1.16,3.02-1.89
	c0.95-0.72,1.84-1.54,2.66-2.43c0.82-0.9,1.56-1.88,2.22-2.94s1.24-2.2,1.71-3.41c0.14-0.36,0.28-0.71,0.41-1.08
	c0.13-0.36,0.27-0.73,0.39-1.1c0.13-0.37,0.25-0.74,0.36-1.11c0.11-0.37,0.22-0.75,0.32-1.12c0.1-0.38,0.19-0.75,0.28-1.13
	c0.08-0.38,0.16-0.76,0.22-1.14c0.06-0.38,0.12-0.76,0.16-1.14s0.07-0.76,0.09-1.13c0.04-0.87,0.07-1.74,0.1-2.61
	c0.03-0.87,0.04-1.74,0.06-2.61c0.01-0.87,0.02-1.74,0.02-2.61c0-0.87,0-1.74,0-2.61c0-0.87-0.01-1.74-0.02-2.61
	c-0.01-0.87-0.02-1.74-0.02-2.61c-0.01-0.87-0.02-1.74-0.02-2.6s-0.01-1.73-0.01-2.6c0.04,0.03,0.08,0.06,0.12,0.1
	c0.04,0.04,0.09,0.08,0.15,0.12c0.05,0.04,0.11,0.09,0.17,0.13s0.12,0.1,0.18,0.15c0.06,0.05,0.13,0.11,0.19,0.16
	c0.07,0.06,0.13,0.11,0.2,0.18c0.07,0.06,0.13,0.12,0.2,0.19c0.06,0.06,0.13,0.13,0.19,0.2c2.02,2.21,3.83,4.51,5.44,6.89
	c1.61,2.38,3.01,4.84,4.2,7.36c1.19,2.52,2.17,5.1,2.94,7.73c0.77,2.63,1.32,5.29,1.65,7.99c1.91,15.5-0.14,32.83-1.68,48.34
	c-2.3,23.17-6.72,46.08-11.81,68.78c-2.46,10.96-4.75,22.1-8.07,32.79c-3.06,9.85-4.71,29.1-9.89,38.25"/>
<g>
	<g>
		<path class="st3" d="M186.85,639.46c-9.17,9.25-20.11,13.87-32.81,13.87s-23.64-4.58-32.81-13.76
			c-9.1-9.17-13.65-20.26-13.65-33.27c0-13,4.55-24.06,13.65-33.15c9.1-9.25,20.03-13.87,32.81-13.87c12.7,0,23.64,4.59,32.81,13.76
			c9.1,9.17,13.65,20.26,13.65,33.27C200.5,619.31,195.95,630.36,186.85,639.46z M154.04,587.92c-5.86,0-8.79,6.13-8.79,18.38
			c0,12.33,2.93,18.49,8.79,18.49c5.86,0,8.8-6.16,8.8-18.49C162.84,594.05,159.9,587.92,154.04,587.92z"/>
		<path class="st3" d="M269.62,651.18c-0.38,0-0.79-0.22-1.24-0.68l-27.52-34.28v33.38c0,1.05-0.53,1.58-1.58,1.58H210.2
			c-1.13,0-1.69-0.53-1.69-1.58V563c0-1.05,0.56-1.58,1.69-1.58h30.33c0.53,0,0.98,0.23,1.35,0.68l26.16,33.72V563
			c0-1.05,0.53-1.58,1.58-1.58h29.09c1.13,0,1.69,0.53,1.69,1.58v86.6c0,1.05-0.56,1.58-1.69,1.58H269.62z"/>
	</g>
	<g>
		<path class="st3" d="M366.35,601.21v11.07h41.84c1.42,0,2.12,0.71,2.12,2.12v22.14c0,1.42-0.71,2.12-2.12,2.12h-41.84v41.54
			c0,1.42-0.71,2.12-2.12,2.12h-45.94c-1.52,0-2.27-0.71-2.27-2.12V563.76c0-1.41,0.76-2.12,2.27-2.12h105.07
			c1.52,0,2.27,0.71,2.27,2.12v35.33c0,1.42-0.76,2.12-2.27,2.12H366.35z"/>
		<path class="st3" d="M437.15,682.32c-1.42,0-2.12-0.71-2.12-2.12V563.76c0-1.41,0.71-2.12,2.12-2.12h46.09
			c1.42,0,2.12,0.71,2.12,2.12V680.2c0,1.42-0.71,2.12-2.12,2.12H437.15z"/>
		<path class="st3" d="M575.12,682.32c-0.71,0-1.27-0.35-1.67-1.06c-4.24-6.16-6.36-12.53-6.36-19.1v-21.38
			c0-2.53-1.22-3.79-3.64-3.79h-17.13v43.21c0,1.42-0.71,2.12-2.12,2.12h-45.94c-1.42,0-2.12-0.71-2.12-2.12V563.76
			c0-1.41,0.71-2.12,2.12-2.12h76.26c12.13,0,21.99,3.18,29.57,9.55c7.18,5.96,10.77,13.29,10.77,21.98
			c0,13.65-5.71,23.45-17.13,29.41c11.42,5.46,17.13,14.96,17.13,28.5v9.55c0,5.36,1.72,11.52,5.15,18.5c0.51,0.81,0.51,1.52,0,2.12
			c-0.3,0.71-0.91,1.06-1.82,1.06H575.12z M563.44,601.21h-17.13v9.25h17.13c0.91,0,1.77-0.45,2.58-1.36
			c0.71-1.01,1.06-2.07,1.06-3.18C567.08,602.78,565.86,601.21,563.44,601.21z"/>
		<path class="st3" d="M626.97,682.32c-1.52,0-2.28-0.71-2.28-2.12V563.76c0-1.41,0.76-2.12,2.28-2.12h105.07
			c1.51,0,2.27,0.71,2.27,2.12v35.33c0,1.42-0.76,2.12-2.27,2.12h-57.01v7.58h41.85c1.41,0,2.12,0.71,2.12,2.12v22.29
			c0,1.42-0.71,2.12-2.12,2.12h-41.85v7.43h57.01c1.51,0,2.27,0.76,2.27,2.28v35.16c0,1.42-0.76,2.13-2.27,2.13H626.97z"/>
	</g>
	<g>
		<path class="st3" d="M327.13,554.47c-1.05,0-1.58-0.53-1.58-1.58v-28.76h-17.03v28.76c0,1.05-0.53,1.58-1.58,1.58h-34.17
			c-1.13,0-1.69-0.53-1.69-1.58v-86.6c0-1.05,0.56-1.58,1.69-1.58h34.17c1.05,0,1.58,0.53,1.58,1.58v29.66h17.03v-29.66
			c0-1.05,0.53-1.58,1.58-1.58h34.17c1.13,0,1.69,0.53,1.69,1.58v86.6c0,1.05-0.56,1.58-1.69,1.58H327.13z"/>
		<path class="st3" d="M373.03,554.47c-1.13,0-1.69-0.53-1.69-1.58v-86.6c0-1.05,0.56-1.58,1.69-1.58h78.15
			c1.13,0,1.69,0.53,1.69,1.58v26.27c0,1.05-0.56,1.58-1.69,1.58h-42.4v5.64h31.12c1.05,0,1.58,0.53,1.58,1.58v16.58
			c0,1.05-0.53,1.58-1.58,1.58h-31.12v5.53h42.4c1.13,0,1.69,0.57,1.69,1.7v26.15c0,1.06-0.56,1.58-1.69,1.58H373.03z"/>
		<path class="st3" d="M462,554.47c-1.13,0-1.69-0.53-1.69-1.58v-86.6c0-1.05,0.56-1.58,1.69-1.58h78.15c1.13,0,1.69,0.53,1.69,1.58
			v26.27c0,1.05-0.56,1.58-1.69,1.58h-42.4v5.64h31.12c1.05,0,1.58,0.53,1.58,1.58v16.58c0,1.05-0.53,1.58-1.58,1.58h-31.12v5.53
			h42.4c1.13,0,1.69,0.57,1.69,1.7v26.15c0,1.06-0.56,1.58-1.69,1.58H462z"/>
		<path class="st3" d="M550.86,554.47c-1.05,0-1.58-0.53-1.58-1.58v-86.6c0-1.05,0.53-1.58,1.58-1.58h34.17
			c1.13,0,1.69,0.53,1.69,1.58v58.75h39.92c1.05,0,1.58,0.57,1.58,1.7v26.15c0,1.06-0.53,1.58-1.58,1.58H550.86z"/>
		<path class="st3" d="M711.55,546.68c-7.52,6.62-18.76,9.92-33.72,9.92c-12.56,0-22.97-2.77-31.24-8.31
			c-8.79-5.77-13.19-13.49-13.19-23.15c0-1.05,0.53-1.58,1.58-1.58h26.95c0.9,0,1.43,0.45,1.58,1.35c0.45,3.01,2.41,5.3,5.87,6.88
			c2.48,1.13,5.19,1.69,8.12,1.69c6.77,0,10.15-1.12,10.15-3.37c0-1.65-4.81-3.48-14.43-5.51c-11.8-2.47-20.22-5.17-25.26-8.09
			c-8.79-5.02-13.19-12.48-13.19-22.37c0-8.39,3.57-15.58,10.71-21.58c7.82-6.67,18.38-10,31.69-10c11.73,0,21.46,2.78,29.21,8.35
			c7.74,5.64,11.62,12.7,11.62,21.2c0,1.05-0.56,1.58-1.69,1.58h-25.94c-0.98,0-1.5-0.45-1.58-1.35c-0.83-5.79-4.62-8.68-11.39-8.68
			c-6.01,0-9.02,1.13-9.02,3.38c0,1.35,1.31,2.48,3.95,3.38c1.5,0.6,4.77,1.43,9.81,2.48c11.5,2.48,20.07,5.41,25.71,8.8
			c9.02,5.41,13.53,12.89,13.53,22.44C721.36,533.53,718.09,541.05,711.55,546.68z"/>
		<path class="st3" d="M235.23,553.34c-0.23,0.75-0.75,1.13-1.58,1.13h-27.29c-0.83,0-1.35-0.38-1.58-1.13l-11.84-34.05
			l-11.84,34.05c-0.23,0.75-0.71,1.13-1.47,1.13h-27.4c-0.75,0-1.24-0.38-1.47-1.13l-30.11-86.49c-0.23-0.53-0.15-1.01,0.23-1.47
			c0.3-0.45,0.75-0.68,1.35-0.68h35.41c0.83,0,1.35,0.41,1.58,1.24l10.26,36.65c1.05-4.13,2.39-9.23,4-15.28
			c1.61-6.05,3.51-13.17,5.69-21.37c0.23-0.83,0.79-1.24,1.69-1.24h29.55c0.83,0,1.35,0.41,1.58,1.24l10.26,37.1
			c1.05-4.13,2.4-9.28,4.06-15.45c1.65-6.16,3.57-13.38,5.75-21.65c0.23-0.83,0.71-1.24,1.47-1.24h29.66c1.5,0,2.03,0.71,1.58,2.14
			L235.23,553.34z"/>
	</g>
</g>
<rect x="187.5" y="716.55" class="st9" width="466.89" height="21.06"/>
<text transform="matrix(1 0 0 1 187.499 735.2526)" class="st10 st11">MTB TOURS - SÃO MIGUEL - AZORES</text>
</svg>
