<?xml version="1.0" encoding="utf-8"?>
<!-- Generator: Adobe Illustrator 24.3.0, SVG Export Plug-In . SVG Version: 6.00 Build 0)  -->
<svg version="1.1" id="Layer_1" xmlns="http://www.w3.org/2000/svg" xmlns:xlink="http://www.w3.org/1999/xlink" x="0px" y="0px"
	 viewBox="0 0 841.89 841.89" style="enable-background:new 0 0 841.89 841.89;" xml:space="preserve">
<style type="text/css">
	.st0{fill:none;stroke:#FFFFFF;stroke-width:7;stroke-miterlimit:10;}
	.st1{fill:#FFFFFF;stroke:#020203;stroke-miterlimit:10;}
	.st2{fill:none;stroke:#FFFFFF;stroke-width:4;stroke-linecap:round;stroke-miterlimit:10;}
	.st3{fill:#E52629;}
	.st4{fill:none;stroke:#000000;stroke-width:7;stroke-miterlimit:10;}
	.st5{fill:none;stroke:#000000;stroke-width:5;stroke-linecap:round;stroke-linejoin:round;stroke-miterlimit:10;}
	.st6{fill:#FFFFFF;stroke:#000000;stroke-width:7;stroke-miterlimit:10;}
	.st7{fill:#FFFFFF;}
	.st8{fill:none;stroke:#FFFFFF;stroke-width:4;stroke-linecap:round;stroke-linejoin:round;stroke-miterlimit:10;}
	.st9{fill:none;}
	.st10{font-family:'AndaleMonoMTStd-Bold';}
	.st11{font-size:24.9414px;}
</style>
<rect x="0" width="841.89" height="841.89"/>
<g>
	<path class="st0" d="M738.85,638.06h15.58l9.66-19.9c0.46-0.9,0.2-1.99-0.6-2.61l-10.12-7.91c2.51-6.11,4.88-12.29,7.07-18.52
		l12.83,0.86c1.02,0.06,1.93-0.58,2.19-1.53l9.16-32.14c0.28-0.98-0.16-1.99-1.06-2.47l-11.33-6.01c1.41-6.45,2.67-12.94,3.74-19.46
		l12.77-1.39c1-0.1,1.79-0.9,1.89-1.89l3.41-33.22c0.1-1.02-0.52-1.93-1.47-2.25l-12.15-3.94c0.3-6.61,0.4-13.22,0.34-19.88
		l12.25-3.54c0.96-0.28,1.59-1.2,1.53-2.21l-2.39-33.28c-0.08-1.02-0.84-1.83-1.83-1.97l-12.63-1.75
		c-0.88-6.55-1.91-13.1-3.17-19.64l11.47-5.62c0.9-0.46,1.37-1.47,1.12-2.43l-8.13-32.4c-0.24-0.98-1.14-1.65-2.15-1.61l-12.83,0.44
		c-1.99-6.25-4.14-12.51-6.49-18.72l10.38-7.59c0.8-0.58,1.1-1.67,0.68-2.59l-13.62-30.47c-0.42-0.92-1.41-1.41-2.39-1.21
		l-12.59,2.69c-3.07-5.9-6.27-11.69-9.62-17.35l8.9-9.26c0.7-0.72,0.78-1.83,0.22-2.67l-18.72-27.64c-0.56-0.84-1.65-1.16-2.57-0.78
		l-11.85,4.78c-4.04-5.28-8.24-10.42-12.55-15.43l7.09-10.59c0.56-0.84,0.48-1.95-0.24-2.67l-23.2-23.96
		c-0.72-0.72-1.81-0.86-2.67-0.32l-10.81,6.75c-4.9-4.48-9.92-8.8-15.04-12.98l5.18-11.69c0.4-0.94,0.12-2.01-0.7-2.61l-27.06-19.58
		c-0.82-0.58-1.93-0.54-2.67,0.14l-9.54,8.6c-5.58-3.56-11.27-6.97-17.03-10.2l3.07-12.47c0.24-0.98-0.24-1.99-1.15-2.43L569,126.96
		c-0.92-0.44-2.01-0.18-2.63,0.62l-7.91,10.14c-6.11-2.53-12.29-4.88-18.52-7.07l0.88-12.83c0.06-1.02-0.6-1.93-1.55-2.19
		l-32.1-9.14c-0.98-0.28-1.99,0.16-2.47,1.04l-6.01,11.33c-6.45-1.43-12.94-2.67-19.48-3.74l-1.37-12.77c-0.1-1-0.9-1.79-1.91-1.89
		l-33.22-3.43c-1-0.12-1.93,0.5-2.25,1.45l-3.94,12.17c-6.61-0.28-13.22-0.4-19.86-0.32l-3.56-12.25c-0.28-0.98-1.2-1.61-2.21-1.53
		l-33.3,2.37c-1.02,0.08-1.83,0.84-1.97,1.83l-1.77,12.65c-6.53,0.88-13.06,1.91-19.6,3.15l-5.64-11.43
		c-0.44-0.9-1.45-1.37-2.43-1.14l-32.4,8.13c-0.96,0.24-1.63,1.14-1.59,2.15l0.44,12.81c-6.25,1.99-12.51,4.16-18.72,6.51
		l-7.59-10.38c-0.6-0.82-1.67-1.12-2.61-0.7l-30.47,13.64c-0.92,0.42-1.43,1.41-1.21,2.39l2.69,12.57
		c-5.89,3.07-11.67,6.29-17.33,9.64l-9.28-8.9c-0.72-0.7-1.83-0.78-2.67-0.22l-27.64,18.72c-0.84,0.56-1.15,1.63-0.78,2.57
		l4.78,11.85c-5.26,4.04-10.4,8.22-15.41,12.53l-10.59-7.09c-0.84-0.56-1.95-0.46-2.67,0.24l-23.98,23.2
		c-0.72,0.72-0.86,1.81-0.32,2.67l6.77,10.83c-4.48,4.9-8.8,9.9-12.98,15.02l-11.69-5.16c-0.94-0.4-2.01-0.12-2.61,0.7l-19.58,27.04
		c-0.58,0.82-0.54,1.93,0.14,2.69l8.6,9.52c-3.54,5.6-6.95,11.27-10.2,17.03l-12.45-3.07c-0.98-0.26-1.99,0.24-2.43,1.14
		l-14.58,30.03c-0.44,0.9-0.18,1.99,0.6,2.61l10.14,7.91c-2.53,6.11-4.88,12.31-7.07,18.54l-12.83-0.86
		c-1.02-0.08-1.93,0.58-2.19,1.53l-9.14,32.12c-0.28,0.98,0.16,2.01,1.06,2.47l11.31,6.01c-1.43,6.45-2.67,12.94-3.74,19.48
		l-12.75,1.37c-1,0.1-1.79,0.92-1.89,1.89l-3.45,33.26c-0.12,1,0.5,1.93,1.45,2.25l12.17,3.92c-0.28,6.61-0.4,13.22-0.32,19.86
		l-12.27,3.54c-0.98,0.28-1.61,1.21-1.55,2.21l2.39,33.3c0.08,1.02,0.84,1.83,1.83,1.97l12.67,1.77c0.88,6.55,1.91,13.08,3.15,19.62
		l-11.45,5.64c-0.9,0.44-1.37,1.45-1.13,2.43l8.13,32.36c0.24,0.98,1.14,1.65,2.13,1.61l12.85-0.44c1.99,6.25,4.16,12.51,6.51,18.72
		l-10.38,7.59c-0.82,0.6-1.1,1.67-0.7,2.59l13.64,30.47c0.04,0.1,0.12,0.16,0.16,0.24h6.87h9.72"/>
	<path class="st0" d="M186.66,316.08c52.59-77.66,142.74-123.49,234.19-123.49c88.24,0,166.04,39,217.28,100.78"/>
	<path class="st7" d="M187.5,638.06c-1.76-5.59-3.8-11.74-6.03-18.14c-2.23-6.4-4.64-13.05-7.14-19.67
		c-2.51-6.62-5.11-13.19-7.73-19.44c-2.61-6.24-5.24-12.16-7.78-17.44c-2.38-4.95-4.67-9.75-6.74-14.51
		c-2.08-4.76-3.95-9.48-5.5-14.28s-2.79-9.66-3.6-14.72c-0.81-5.06-1.19-10.3-1.04-15.84c0.07-2.33-0.17-4.68-0.59-7.04
		c-0.42-2.36-1.02-4.73-1.68-7.09c-0.66-2.37-1.39-4.73-2.07-7.08c-0.68-2.35-1.3-4.68-1.76-6.99c-0.52-2.6-0.98-5.2-1.39-7.81
		c-0.41-2.61-0.78-5.23-1.09-7.86c-0.32-2.63-0.59-5.26-0.82-7.89c-0.23-2.63-0.42-5.27-0.57-7.91c-0.19-3.34-0.43-6.78-0.64-10.27
		c-0.22-3.49-0.41-7.03-0.52-10.57c-0.11-3.54-0.12-7.07,0.01-10.55c0.14-3.48,0.43-6.9,0.95-10.22c0.47-3.01,0.83-6,1.19-8.96
		c0.36-2.97,0.72-5.91,1.17-8.84c0.46-2.93,1.01-5.84,1.77-8.73c0.76-2.89,1.72-5.77,2.98-8.64c1.2-2.72,2.52-5.37,3.94-7.95
		s2.96-5.07,4.6-7.5c1.64-2.43,3.39-4.78,5.23-7.06s3.79-4.49,5.83-6.63c2.32-2.44,4.33-4.98,6.04-7.63
		c1.71-2.65,3.11-5.42,4.21-8.29s1.91-5.86,2.42-8.96c0.51-3.1,0.73-6.32,0.66-9.65c-0.01-0.51-0.02-1.02-0.02-1.53
		c0-0.51,0-1.02,0-1.53c0-0.51,0.01-1.02,0.01-1.53c0-0.51,0-1.02,0-1.53c0.15-0.02,0.3-0.03,0.45-0.05
		c0.15-0.02,0.3-0.03,0.45-0.05c0.15-0.02,0.3-0.03,0.45-0.05c0.15-0.02,0.3-0.03,0.45-0.05c0.3,1.25,0.63,2.51,0.96,3.75
		c0.33,1.25,0.67,2.5,1,3.75c0.32,1.25,0.63,2.51,0.9,3.76c0.27,1.26,0.5,2.52,0.67,3.79c0.4,3.01,0.46,5.97,0.27,8.89
		s-0.64,5.79-1.26,8.64c-0.62,2.85-1.4,5.67-2.27,8.48s-1.83,5.61-2.78,8.41c-0.53,1.57-1.08,3.14-1.6,4.73
		c-0.53,1.58-1.04,3.17-1.51,4.77c-0.47,1.6-0.9,3.2-1.26,4.82s-0.66,3.23-0.87,4.86c-0.28,2.18-0.33,4.32-0.12,6.38
		c0.21,2.06,0.67,4.04,1.4,5.91c0.74,1.87,1.76,3.63,3.08,5.24c1.32,1.61,2.95,3.08,4.91,4.36c1.87,1.23,3.76,2.11,5.66,2.68
		c1.9,0.57,3.82,0.83,5.74,0.8c1.92-0.03,3.84-0.34,5.76-0.9c1.92-0.57,3.83-1.39,5.73-2.44c1.51-0.84,2.87-1.8,4.08-2.88
		c1.21-1.08,2.26-2.28,3.17-3.58s1.66-2.71,2.26-4.21c0.6-1.5,1.06-3.09,1.36-4.77c0.21-1.18,0.38-2.37,0.52-3.58
		c0.14-1.21,0.25-2.44,0.35-3.69c0.1-1.26,0.19-2.54,0.29-3.87c0.1-1.32,0.21-2.69,0.34-4.1c1.16,2.54,2.18,5.05,3.03,7.56
		c0.85,2.51,1.53,5.01,2.01,7.52c0.48,2.51,0.77,5.02,0.83,7.56c0.07,2.53-0.09,5.09-0.49,7.67c-0.27,1.75-0.61,3.49-0.98,5.23
		c-0.38,1.73-0.79,3.46-1.22,5.19c-0.43,1.73-0.87,3.45-1.31,5.18c-0.43,1.73-0.86,3.45-1.24,5.19c-0.29,1.32-0.54,2.65-0.69,3.97
		c-0.14,1.32-0.18,2.62-0.04,3.89c0.13,1.27,0.44,2.5,0.98,3.67c0.54,1.17,1.31,2.29,2.38,3.32c1.95,1.88,4,3.45,6.14,4.72
		c2.15,1.27,4.39,2.22,6.72,2.87c2.33,0.64,4.74,0.98,7.23,0.99s5.06-0.28,7.7-0.91c1.27-0.3,2.36-0.75,3.28-1.35
		c0.91-0.6,1.65-1.34,2.2-2.2c0.56-0.87,0.93-1.86,1.13-2.97c0.2-1.11,0.21-2.32,0.05-3.64c-0.08-0.61-0.18-1.21-0.31-1.81
		s-0.28-1.2-0.44-1.8s-0.35-1.19-0.55-1.78c-0.2-0.59-0.41-1.17-0.62-1.75c-1.01-2.68-2.02-5.36-3.05-8.03
		c-1.02-2.67-2.05-5.34-3.08-8.02s-2.06-5.34-3.07-8.02c-1.02-2.68-2.03-5.35-3.02-8.04c-1.39-3.74-2.35-7.41-2.87-11.03
		c-0.52-3.62-0.59-7.19-0.19-10.7c0.4-3.52,1.27-6.98,2.64-10.4c1.37-3.42,3.24-6.79,5.63-10.12c1.93-2.69,3.75-5.45,5.39-8.28
		s3.11-5.75,4.35-8.75c1.24-3,2.25-6.1,2.98-9.31c0.73-3.2,1.17-6.52,1.28-9.95c0-0.04,0.03-0.07,0.08-0.11
		c0.05-0.04,0.13-0.08,0.22-0.13c0.09-0.05,0.2-0.1,0.32-0.16c0.12-0.06,0.25-0.13,0.39-0.21c0.19,0.33,0.38,0.66,0.57,0.99
		c0.19,0.33,0.38,0.66,0.57,0.98s0.37,0.66,0.55,0.99c0.18,0.33,0.35,0.67,0.51,1c1.46,3.07,2.67,6.17,3.61,9.3s1.63,6.3,2.06,9.51
		c0.43,3.2,0.59,6.44,0.49,9.72c-0.1,3.27-0.47,6.58-1.1,9.93c-0.4,2.13-0.47,4.18-0.21,6.1s0.84,3.71,1.72,5.34
		c0.88,1.63,2.07,3.1,3.54,4.38c1.47,1.27,3.23,2.35,5.26,3.19c1.2,0.5,2.4,0.91,3.6,1.2s2.4,0.45,3.6,0.45s2.37-0.18,3.53-0.56
		s2.3-0.97,3.4-1.82c1.08-0.82,1.93-1.74,2.6-2.74c0.67-1,1.14-2.08,1.46-3.2c0.31-1.12,0.46-2.3,0.47-3.49s-0.12-2.4-0.36-3.61
		c-0.28-1.39-0.59-2.78-0.94-4.17c-0.35-1.38-0.73-2.76-1.15-4.13c-0.41-1.37-0.86-2.73-1.34-4.08s-0.98-2.68-1.51-4
		c-0.95-2.37-1.95-4.72-2.96-7.06s-2.06-4.67-3.1-7c-1.04-2.33-2.09-4.66-3.1-7c-1.02-2.34-2.02-4.69-2.96-7.06
		c-2.49-6.2-4.09-12.26-4.84-18.17c-0.74-5.91-0.62-11.67,0.37-17.29c0.99-5.62,2.84-11.08,5.54-16.4s6.26-10.49,10.66-15.5
		c0.2-0.23,0.41-0.45,0.63-0.66s0.45-0.43,0.69-0.66c0.24-0.22,0.49-0.45,0.76-0.69c0.26-0.24,0.54-0.5,0.83-0.77
		c0.03,0.23,0.06,0.41,0.09,0.56c0.02,0.15,0.04,0.26,0.06,0.34c0.01,0.09,0.02,0.15,0.03,0.2c0,0.05,0,0.08-0.01,0.12
		c-0.1,0.33-0.2,0.66-0.31,1c-0.1,0.33-0.21,0.66-0.31,0.99s-0.21,0.66-0.31,0.99c-0.1,0.33-0.2,0.66-0.3,1
		c-0.92,3.11-1.71,6.23-2.29,9.34c-0.58,3.11-0.95,6.23-1.04,9.34c-0.08,3.11,0.13,6.21,0.71,9.3c0.58,3.09,1.53,6.18,2.94,9.24
		c1.28,2.79,2.82,5.25,4.6,7.37c1.78,2.13,3.8,3.92,6.03,5.39c2.23,1.47,4.67,2.61,7.31,3.43c2.63,0.82,5.45,1.31,8.44,1.49
		c2.91,0.17,5.57-0.14,7.99-0.86c2.42-0.72,4.61-1.84,6.57-3.29c1.96-1.45,3.71-3.23,5.24-5.26c1.53-2.03,2.86-4.32,4-6.78
		c0.63-1.37,1.14-2.79,1.58-4.25c0.44-1.46,0.8-2.95,1.12-4.46c0.33-1.51,0.61-3.04,0.91-4.56c0.3-1.52,0.6-3.04,0.94-4.53
		c0.08-0.33,0.13-0.67,0.16-1.02s0.05-0.71,0.07-1.09c0.01-0.38,0.02-0.78,0.03-1.19s0.03-0.86,0.05-1.33
		c3.8,3.01,6.9,6.39,9.27,10.05c2.37,3.66,4,7.61,4.85,11.75c0.86,4.14,0.94,8.46,0.22,12.89c-0.72,4.42-2.26,8.95-4.64,13.48
		c-1.24,2.36-2.61,4.67-4.07,6.92c-1.46,2.26-3.02,4.47-4.63,6.64s-3.28,4.32-4.97,6.43c-1.69,2.12-3.41,4.21-5.11,6.3
		c-2.98,3.66-5.52,7.41-7.6,11.27s-3.68,7.84-4.78,11.93s-1.69,8.31-1.73,12.66s0.46,8.84,1.54,13.47c0.87,3.73,2.4,6.92,4.41,9.48
		c2.01,2.56,4.5,4.51,7.31,5.77s5.93,1.83,9.21,1.65c3.28-0.18,6.71-1.12,10.12-2.87c2.07-1.07,3.98-2.3,5.74-3.68
		c1.76-1.37,3.38-2.89,4.89-4.51s2.9-3.36,4.2-5.18c1.31-1.82,2.52-3.72,3.69-5.68c0.22-0.37,0.44-0.73,0.66-1.11
		c0.23-0.38,0.46-0.77,0.72-1.19c0.25-0.42,0.52-0.86,0.82-1.35s0.61-1.01,0.96-1.59c0.8,2.96,1.29,5.8,1.49,8.55
		c0.2,2.75,0.11,5.4-0.24,7.97c-0.36,2.57-0.98,5.06-1.85,7.5c-0.87,2.43-1.98,4.8-3.32,7.13c-0.94,1.64-1.93,3.25-2.95,4.85
		c-1.02,1.6-2.06,3.18-3.12,4.75c-1.05,1.58-2.12,3.15-3.16,4.73c-1.05,1.58-2.08,3.17-3.09,4.78c-2.45,3.93-3.88,8.22-4.38,12.58
		c-0.5,4.35-0.08,8.76,1.17,12.92c1.25,4.15,3.34,8.06,6.17,11.39c2.83,3.34,6.4,6.11,10.63,8.01c1.98,0.89,3.97,1.59,5.96,2.05
		c1.99,0.46,3.97,0.69,5.94,0.64c1.97-0.05,3.92-0.39,5.84-1.05s3.8-1.65,5.64-3.01c1.8-1.33,3.24-2.81,4.35-4.41
		c1.11-1.6,1.9-3.31,2.41-5.12c0.51-1.81,0.75-3.71,0.75-5.67c0.01-1.96-0.22-3.99-0.62-6.06c-0.42-2.16-0.88-4.32-1.35-6.47
		c-0.47-2.15-0.96-4.3-1.45-6.45c-0.49-2.15-0.97-4.3-1.43-6.46c-0.46-2.15-0.9-4.31-1.3-6.48c-0.64-3.47-0.98-6.88-0.99-10.21
		c-0.01-3.34,0.31-6.6,0.99-9.79s1.73-6.29,3.16-9.31c1.44-3.02,3.27-5.95,5.53-8.79c0.96-1.21,1.88-2.45,2.79-3.71
		c0.9-1.26,1.79-2.53,2.68-3.8c0.89-1.27,1.78-2.54,2.69-3.78c0.92-1.25,1.85-2.47,2.84-3.66c1.97-2.38,3.56-4.82,4.78-7.34
		c1.22-2.51,2.08-5.09,2.59-7.73c0.51-2.65,0.68-5.36,0.52-8.15c-0.16-2.79-0.64-5.64-1.43-8.57c-0.52-1.93-1.02-3.86-1.51-5.8
		s-0.96-3.88-1.44-5.83c-0.47-1.95-0.94-3.9-1.41-5.86c-0.47-1.96-0.94-3.92-1.43-5.88c0.12,0.03,0.24,0.04,0.35,0.06
		c0.11,0.01,0.2,0.02,0.29,0.04c0.09,0.01,0.17,0.03,0.24,0.05s0.13,0.05,0.18,0.09c0.21,0.18,0.41,0.35,0.62,0.53
		c0.2,0.18,0.41,0.36,0.61,0.54c0.2,0.18,0.4,0.37,0.59,0.56c0.19,0.19,0.38,0.38,0.56,0.58c3.69,4.04,6.88,8.27,9.56,12.67
		c2.68,4.4,4.85,8.98,6.51,13.73s2.8,9.69,3.42,14.8c0.62,5.11,0.73,10.39,0.32,15.86c-0.29,3.81-0.84,7.55-1.62,11.21
		c-0.78,3.66-1.78,7.25-2.98,10.78s-2.59,6.99-4.15,10.41s-3.27,6.77-5.12,10.09c-1.19,2.14-2.08,4.28-2.67,6.42
		c-0.59,2.14-0.87,4.28-0.86,6.42c0.01,2.14,0.32,4.28,0.93,6.42c0.61,2.14,1.51,4.27,2.7,6.41c1.85,3.32,4.54,6.34,7.76,8.93
		s6.97,4.77,10.94,6.4c3.97,1.63,8.16,2.71,12.28,3.11c4.11,0.41,8.14,0.14,11.78-0.92c1.41-0.41,2.73-0.93,3.96-1.56
		c1.23-0.63,2.36-1.37,3.39-2.23c1.04-0.86,1.98-1.83,2.82-2.93c0.85-1.09,1.6-2.31,2.25-3.65c1.82-3.72,3.09-7.4,3.83-11.03
		c0.74-3.63,0.95-7.21,0.64-10.76c-0.31-3.54-1.13-7.05-2.45-10.51s-3.14-6.89-5.44-10.28c-0.91-1.34-1.84-2.68-2.77-4.02
		c-0.93-1.34-1.85-2.68-2.76-4.03c-0.9-1.35-1.79-2.71-2.64-4.09s-1.66-2.78-2.41-4.21c-1.83-3.46-3.42-6.97-4.69-10.52
		c-1.27-3.55-2.22-7.14-2.75-10.78c-0.53-3.64-0.65-7.33-0.27-11.07c0.38-3.74,1.27-7.54,2.75-11.39c1-2.6,2.22-5.01,3.63-7.26
		c1.41-2.24,3.02-4.32,4.8-6.25c1.77-1.93,3.72-3.72,5.8-5.38c2.08-1.66,4.31-3.21,6.65-4.65c-0.69,2.32-1.3,4.64-1.81,6.97
		s-0.91,4.65-1.19,6.98c-0.28,2.33-0.44,4.67-0.44,7.02c-0.01,2.35,0.13,4.71,0.45,7.09c0.27,2.04,0.62,4.04,1.1,5.99
		c0.48,1.95,1.09,3.84,1.88,5.64c0.79,1.81,1.74,3.53,2.92,5.14s2.57,3.12,4.23,4.49c1.67,1.38,3.37,2.37,5.1,3.04
		c1.73,0.67,3.5,1.01,5.29,1.09c1.79,0.07,3.61-0.12,5.45-0.53s3.7-1.02,5.57-1.79c1.64-0.68,3.01-1.52,4.13-2.51
		c1.12-0.99,2-2.12,2.68-3.37s1.15-2.61,1.47-4.06c0.32-1.45,0.47-2.98,0.51-4.58c0.03-1.23,0.03-2.47,0.02-3.7
		c-0.02-1.24-0.06-2.47-0.12-3.71c-0.06-1.24-0.14-2.47-0.23-3.71c-0.09-1.23-0.2-2.47-0.31-3.7c-0.21-2.19-0.45-4.39-0.7-6.58
		c-0.25-2.19-0.52-4.38-0.78-6.57c-0.26-2.19-0.52-4.38-0.75-6.57s-0.45-4.39-0.62-6.58c-0.24-3.04-0.38-6.07-0.37-9.08
		c0.02-3.01,0.18-6,0.56-8.96c0.38-2.96,0.96-5.89,1.81-8.78s1.95-5.74,3.37-8.53c0.76-1.49,1.58-2.92,2.5-4.29
		c0.91-1.37,1.91-2.69,3.02-3.95c1.1-1.26,2.31-2.48,3.63-3.65c1.32-1.17,2.77-2.29,4.34-3.38c-0.55,1.87-1.08,3.67-1.61,5.42
		c-0.52,1.75-1.04,3.46-1.54,5.14s-0.98,3.33-1.45,4.96c-0.47,1.64-0.92,3.26-1.36,4.89c-0.99,3.7-1.67,7.37-2.01,11.01
		c-0.34,3.64-0.36,7.25-0.02,10.83c0.34,3.57,1.02,7.11,2.08,10.61s2.48,6.96,4.29,10.37c3.01,5.67,5.21,11.34,6.66,17.02
		c1.45,5.68,2.14,11.36,2.13,17.04c-0.01,5.69-0.73,11.38-2.11,17.09c-1.38,5.7-3.42,11.42-6.07,17.15
		c-0.53,1.15-1.04,2.31-1.52,3.5c-0.48,1.18-0.93,2.38-1.35,3.59c-0.42,1.21-0.8,2.43-1.14,3.65c-0.34,1.23-0.64,2.46-0.89,3.69
		c-0.71,3.5-0.82,6.75-0.37,9.71s1.45,5.62,2.98,7.95c1.53,2.33,3.57,4.32,6.11,5.94c2.53,1.62,5.55,2.86,9.03,3.69
		c2.44,0.58,4.72,0.8,6.8,0.64c2.08-0.16,3.95-0.7,5.59-1.61c1.64-0.91,3.04-2.2,4.16-3.87c1.13-1.67,1.98-3.72,2.53-6.16
		c0.37-1.67,0.64-3.36,0.83-5.07c0.19-1.71,0.31-3.44,0.39-5.17s0.12-3.48,0.17-5.22s0.09-3.48,0.17-5.21
		c0.07-1.5,0.09-3.01,0.1-4.52s0-3.02,0.01-4.52c0-1.51,0.02-3.01,0.07-4.52c0.05-1.5,0.14-3,0.28-4.49
		c0.2-1.96,0.49-3.91,0.89-5.84c0.4-1.94,0.91-3.86,1.54-5.8s1.38-3.89,2.26-5.86s1.9-3.97,3.05-6.01
		c2.51,5.09,4.63,10.14,6.3,15.17c1.67,5.03,2.88,10.04,3.55,15.06s0.81,10.06,0.33,15.15s-1.58,10.22-3.38,15.43
		c-0.83,2.41-1.28,4.67-1.36,6.78c-0.08,2.12,0.23,4.09,0.9,5.93c0.68,1.83,1.73,3.53,3.16,5.09c1.43,1.56,3.24,2.97,5.42,4.26
		c1.45,0.85,2.94,1.57,4.45,2.15c1.51,0.58,3.05,1.02,4.62,1.33c1.57,0.31,3.16,0.48,4.78,0.51c1.62,0.03,3.26-0.07,4.93-0.31
		c2.05-0.3,3.93-0.88,5.59-1.72s3.11-1.93,4.28-3.24c1.17-1.31,2.08-2.84,2.66-4.56c0.59-1.72,0.85-3.62,0.75-5.69
		c-0.06-1.28-0.2-2.57-0.39-3.86c-0.19-1.29-0.45-2.58-0.76-3.86c-0.31-1.28-0.67-2.55-1.07-3.8c-0.4-1.25-0.85-2.48-1.34-3.67
		c-1.14-2.83-2.34-5.64-3.57-8.44c-1.23-2.8-2.49-5.58-3.75-8.37s-2.52-5.57-3.75-8.37s-2.44-5.6-3.59-8.43
		c-1-2.45-1.9-4.93-2.68-7.44s-1.44-5.04-1.97-7.61c-0.52-2.57-0.91-5.16-1.13-7.78c-0.23-2.62-0.29-5.27-0.18-7.95
		c0.14-3.37,0.61-6.56,1.42-9.59c0.81-3.03,1.96-5.9,3.47-8.62c1.5-2.72,3.36-5.3,5.58-7.74s4.81-4.76,7.77-6.95
		c-0.15,0.73-0.3,1.39-0.44,2c-0.14,0.6-0.28,1.15-0.39,1.67c-0.12,0.51-0.22,0.99-0.3,1.45c-0.08,0.46-0.13,0.9-0.15,1.34
		c-0.08,1.96-0.21,3.92-0.35,5.89s-0.28,3.94-0.38,5.9c-0.1,1.96-0.16,3.92-0.14,5.87c0.02,1.95,0.12,3.89,0.35,5.82
		c0.3,2.5,0.95,4.7,1.92,6.57c0.96,1.88,2.23,3.44,3.77,4.69s3.32,2.17,5.33,2.77s4.22,0.88,6.61,0.83
		c2.75-0.06,5.05-0.31,6.97-0.84c1.93-0.53,3.49-1.33,4.77-2.48c1.28-1.15,2.28-2.66,3.09-4.59c0.81-1.93,1.42-4.3,1.93-7.17
		c0.02-0.11,0.04-0.23,0.06-0.34s0.04-0.23,0.06-0.34c0.02-0.12,0.03-0.23,0.04-0.35s0.02-0.23,0.02-0.35
		c0.03-3.36,0.08-6.72,0.13-10.08c0.05-3.36,0.1-6.72,0.14-10.08s0.07-6.72,0.07-10.08c0-3.36-0.02-6.72-0.09-10.08
		c-0.04-1.92-0.14-3.85-0.28-5.75c-0.14-1.91-0.32-3.79-0.52-5.65c-0.2-1.86-0.41-3.68-0.61-5.45c-0.2-1.78-0.39-3.5-0.55-5.17
		c1.68,2.92,3.38,5.87,5.1,8.85c1.72,2.98,3.46,6,5.2,9.03c1.75,3.03,3.5,6.09,5.26,9.15c1.76,3.07,3.51,6.14,5.26,9.23
		c0.44,0.77,0.86,1.55,1.28,2.34c0.41,0.79,0.82,1.58,1.21,2.38c0.39,0.8,0.77,1.61,1.14,2.42c0.37,0.81,0.72,1.63,1.07,2.44
		c1.46,3.46,2.69,7,3.61,10.59c0.92,3.58,1.52,7.2,1.71,10.82c0.19,3.62-0.02,7.24-0.74,10.81c-0.71,3.58-1.92,7.11-3.73,10.56
		c-0.87,1.67-1.85,3.24-2.9,4.75c-1.05,1.51-2.17,2.95-3.33,4.36c-1.16,1.41-2.36,2.8-3.56,4.19s-2.4,2.79-3.57,4.23
		c-4.62,5.7-3.44,14.62,1.67,19.79c3.73,3.77,9.46,5.45,14.63,4.27c2.25-0.51,4.37-1.52,6.32-2.77
		c10.75-6.94,12.36-18.49,12.5-30.17c0.03-2.47-0.34-4.39-1.32-5.24c0.07,0.06,0.16,0.14,0.27,0.22c0.1,0.08,0.22,0.18,0.35,0.28
		c0.13,0.1,0.26,0.22,0.39,0.34s0.26,0.25,0.39,0.39c1.96,2.14,3.67,4.53,5.19,7.07c1.52,2.55,2.86,5.25,4.05,8.03
		c1.2,2.78,2.25,5.63,3.23,8.46c0.97,2.83,1.86,5.65,2.72,8.36c0.91,2.87,1.55,5.92,2,9.07s0.71,6.4,0.86,9.66
		c0.14,3.26,0.17,6.53,0.15,9.74c-0.02,3.2-0.08,6.33-0.12,9.31c-0.05,3.69-0.17,7.37-0.38,11.05c-0.2,3.68-0.48,7.36-0.84,11.03
		c-0.36,3.67-0.79,7.33-1.31,10.98c-0.51,3.65-1.1,7.29-1.77,10.92c-1.3,7.11-3.79,18.08-7,30.92
		c-3.21,12.84-7.15,27.55-11.38,42.17s-11.78,29.11-16.11,41.54c-4.34,12.43-5.46,22.8-9.02,29.1"/>
	<g>
		<g>
			<path class="st3" d="M186.85,647.2c-9.17,9.25-20.11,13.87-32.81,13.87s-23.64-4.58-32.81-13.76
				c-9.1-9.17-13.65-20.26-13.65-33.27c0-13,4.55-24.06,13.65-33.15c9.1-9.25,20.03-13.87,32.81-13.87
				c12.7,0,23.64,4.59,32.81,13.76c9.1,9.17,13.65,20.26,13.65,33.27C200.5,627.06,195.95,638.11,186.85,647.2z M154.04,595.67
				c-5.86,0-8.79,6.13-8.79,18.38c0,12.33,2.93,18.49,8.79,18.49c5.86,0,8.8-6.16,8.8-18.49
				C162.84,601.8,159.9,595.67,154.04,595.67z"/>
			<path class="st3" d="M269.62,658.93c-0.38,0-0.79-0.22-1.24-0.68l-27.52-34.28v33.38c0,1.05-0.53,1.58-1.58,1.58H210.2
				c-1.13,0-1.69-0.53-1.69-1.58v-86.6c0-1.05,0.56-1.58,1.69-1.58h30.33c0.53,0,0.98,0.23,1.35,0.68l26.16,33.72v-32.82
				c0-1.05,0.53-1.58,1.58-1.58h29.09c1.13,0,1.69,0.53,1.69,1.58v86.6c0,1.05-0.56,1.58-1.69,1.58H269.62z"/>
		</g>
		<g>
			<path class="st3" d="M366.35,608.96v11.07h41.84c1.42,0,2.12,0.71,2.12,2.12v22.14c0,1.42-0.71,2.12-2.12,2.12h-41.84v41.54
				c0,1.42-0.71,2.12-2.12,2.12h-45.94c-1.52,0-2.27-0.71-2.27-2.12V571.51c0-1.41,0.76-2.12,2.27-2.12h105.07
				c1.52,0,2.27,0.71,2.27,2.12v35.33c0,1.42-0.76,2.12-2.27,2.12H366.35z"/>
			<path class="st3" d="M437.15,690.07c-1.42,0-2.12-0.71-2.12-2.12V571.51c0-1.41,0.71-2.12,2.12-2.12h46.09
				c1.42,0,2.12,0.71,2.12,2.12v116.44c0,1.42-0.71,2.12-2.12,2.12H437.15z"/>
			<path class="st3" d="M575.12,690.07c-0.71,0-1.27-0.35-1.67-1.06c-4.24-6.16-6.36-12.53-6.36-19.1v-21.38
				c0-2.53-1.22-3.79-3.64-3.79h-17.13v43.21c0,1.42-0.71,2.12-2.12,2.12h-45.94c-1.42,0-2.12-0.71-2.12-2.12V571.51
				c0-1.41,0.71-2.12,2.12-2.12h76.26c12.13,0,21.99,3.18,29.57,9.55c7.18,5.96,10.77,13.29,10.77,21.98
				c0,13.65-5.71,23.45-17.13,29.41c11.42,5.46,17.13,14.96,17.13,28.5v9.55c0,5.36,1.72,11.52,5.15,18.5
				c0.51,0.81,0.51,1.52,0,2.12c-0.3,0.71-0.91,1.06-1.82,1.06H575.12z M563.44,608.96h-17.13v9.25h17.13
				c0.91,0,1.77-0.45,2.58-1.36c0.71-1.01,1.06-2.07,1.06-3.18C567.08,610.53,565.86,608.96,563.44,608.96z"/>
			<path class="st3" d="M626.97,690.07c-1.52,0-2.28-0.71-2.28-2.12V571.51c0-1.41,0.76-2.12,2.28-2.12h105.07
				c1.51,0,2.27,0.71,2.27,2.12v35.33c0,1.42-0.76,2.12-2.27,2.12h-57.01v7.58h41.85c1.41,0,2.12,0.71,2.12,2.12v22.29
				c0,1.42-0.71,2.12-2.12,2.12h-41.85v7.43h57.01c1.51,0,2.27,0.76,2.27,2.28v35.16c0,1.42-0.76,2.13-2.27,2.13H626.97z"/>
		</g>
		<g>
			<path class="st3" d="M327.13,562.21c-1.05,0-1.58-0.53-1.58-1.58v-28.76h-17.03v28.76c0,1.05-0.53,1.58-1.58,1.58h-34.17
				c-1.13,0-1.69-0.53-1.69-1.58v-86.6c0-1.05,0.56-1.58,1.69-1.58h34.17c1.05,0,1.58,0.53,1.58,1.58v29.66h17.03v-29.66
				c0-1.05,0.53-1.58,1.58-1.58h34.17c1.13,0,1.69,0.53,1.69,1.58v86.6c0,1.05-0.56,1.58-1.69,1.58H327.13z"/>
			<path class="st3" d="M373.03,562.21c-1.13,0-1.69-0.53-1.69-1.58v-86.6c0-1.05,0.56-1.58,1.69-1.58h78.15
				c1.13,0,1.69,0.53,1.69,1.58v26.27c0,1.05-0.56,1.58-1.69,1.58h-42.4v5.64h31.12c1.05,0,1.58,0.53,1.58,1.58v16.58
				c0,1.05-0.53,1.58-1.58,1.58h-31.12v5.53h42.4c1.13,0,1.69,0.57,1.69,1.7v26.15c0,1.06-0.56,1.58-1.69,1.58H373.03z"/>
			<path class="st3" d="M462,562.21c-1.13,0-1.69-0.53-1.69-1.58v-86.6c0-1.05,0.56-1.58,1.69-1.58h78.15
				c1.13,0,1.69,0.53,1.69,1.58v26.27c0,1.05-0.56,1.58-1.69,1.58h-42.4v5.64h31.12c1.05,0,1.58,0.53,1.58,1.58v16.58
				c0,1.05-0.53,1.58-1.58,1.58h-31.12v5.53h42.4c1.13,0,1.69,0.57,1.69,1.7v26.15c0,1.06-0.56,1.58-1.69,1.58H462z"/>
			<path class="st3" d="M550.86,562.21c-1.05,0-1.58-0.53-1.58-1.58v-86.6c0-1.05,0.53-1.58,1.58-1.58h34.17
				c1.13,0,1.69,0.53,1.69,1.58v58.75h39.92c1.05,0,1.58,0.57,1.58,1.7v26.15c0,1.06-0.53,1.58-1.58,1.58H550.86z"/>
			<path class="st3" d="M711.55,554.43c-7.52,6.62-18.76,9.92-33.72,9.92c-12.56,0-22.97-2.77-31.24-8.31
				c-8.79-5.77-13.19-13.49-13.19-23.15c0-1.05,0.53-1.58,1.58-1.58h26.95c0.9,0,1.43,0.45,1.58,1.35c0.45,3.01,2.41,5.3,5.87,6.88
				c2.48,1.13,5.19,1.69,8.12,1.69c6.77,0,10.15-1.12,10.15-3.37c0-1.65-4.81-3.48-14.43-5.51c-11.8-2.47-20.22-5.17-25.26-8.09
				c-8.79-5.02-13.19-12.48-13.19-22.37c0-8.39,3.57-15.58,10.71-21.58c7.82-6.67,18.38-10,31.69-10c11.73,0,21.46,2.78,29.21,8.35
				c7.74,5.64,11.62,12.7,11.62,21.2c0,1.05-0.56,1.58-1.69,1.58h-25.94c-0.98,0-1.5-0.45-1.58-1.35
				c-0.83-5.79-4.62-8.68-11.39-8.68c-6.01,0-9.02,1.13-9.02,3.38c0,1.35,1.31,2.48,3.95,3.38c1.5,0.6,4.77,1.43,9.81,2.48
				c11.5,2.48,20.07,5.41,25.71,8.8c9.02,5.41,13.53,12.89,13.53,22.44C721.36,541.27,718.09,548.79,711.55,554.43z"/>
			<path class="st3" d="M235.23,561.08c-0.23,0.75-0.75,1.13-1.58,1.13h-27.29c-0.83,0-1.35-0.38-1.58-1.13l-11.84-34.06
				l-11.84,34.06c-0.23,0.75-0.71,1.13-1.47,1.13h-27.4c-0.75,0-1.24-0.38-1.47-1.13l-30.11-86.49c-0.23-0.53-0.15-1.01,0.23-1.47
				c0.3-0.45,0.75-0.68,1.35-0.68h35.41c0.83,0,1.35,0.41,1.58,1.24l10.26,36.65c1.05-4.13,2.39-9.23,4-15.28
				c1.61-6.05,3.51-13.17,5.69-21.37c0.23-0.83,0.79-1.24,1.69-1.24h29.55c0.83,0,1.35,0.41,1.58,1.24l10.26,37.1
				c1.05-4.13,2.4-9.28,4.06-15.45c1.65-6.16,3.57-13.38,5.75-21.65c0.23-0.83,0.71-1.24,1.47-1.24h29.66c1.5,0,2.03,0.71,1.58,2.14
				L235.23,561.08z"/>
		</g>
	</g>
	<rect x="187.5" y="724.29" class="st9" width="466.89" height="21.06"/>
	<text transform="matrix(1 0 0 1 187.4993 742.9978)" class="st7 st10 st11">MTB TOURS - SÃO MIGUEL - AZORES</text>
</g>
</svg>
